ISO-10303-21;
HEADER;
FILE_DESCRIPTION(('envelope box for mechanical fit'),'2;1');
FILE_NAME('JST_PH_S2B-PH-SM4-TB_1x02-1MP_P2.00mm_Horizontal.step','2026-09-30T00:00:00',(''),(''),'','','');
FILE_SCHEMA(('AUTOMOTIVE_DESIGN { 1 0 10303 214 1 1 1 1 }'));
ENDSEC;
DATA;
#1=CARTESIAN_POINT('',(-4.0000,-4.4500,0.0000));
#2=VERTEX_POINT('',#1);
#3=CARTESIAN_POINT('',(4.0000,-4.4500,0.0000));
#4=VERTEX_POINT('',#3);
#5=CARTESIAN_POINT('',(-4.0000,3.2500,0.0000));
#6=VERTEX_POINT('',#5);
#7=CARTESIAN_POINT('',(4.0000,3.2500,0.0000));
#8=VERTEX_POINT('',#7);
#9=CARTESIAN_POINT('',(-4.0000,-4.4500,4.7500));
#10=VERTEX_POINT('',#9);
#11=CARTESIAN_POINT('',(4.0000,-4.4500,4.7500));
#12=VERTEX_POINT('',#11);
#13=CARTESIAN_POINT('',(-4.0000,3.2500,4.7500));
#14=VERTEX_POINT('',#13);
#15=CARTESIAN_POINT('',(4.0000,3.2500,4.7500));
#16=VERTEX_POINT('',#15);
#17=CARTESIAN_POINT('',(-4.0000,-4.4500,0.0000));
#18=DIRECTION('',(1.0,0.0,0.0));
#19=VECTOR('',#18,8.0000);
#20=LINE('',#17,#19);
#21=EDGE_CURVE('',#2,#4,#20,.T.);
#22=CARTESIAN_POINT('',(-4.0000,3.2500,0.0000));
#23=DIRECTION('',(1.0,0.0,0.0));
#24=VECTOR('',#23,8.0000);
#25=LINE('',#22,#24);
#26=EDGE_CURVE('',#6,#8,#25,.T.);
#27=CARTESIAN_POINT('',(-4.0000,-4.4500,4.7500));
#28=DIRECTION('',(1.0,0.0,0.0));
#29=VECTOR('',#28,8.0000);
#30=LINE('',#27,#29);
#31=EDGE_CURVE('',#10,#12,#30,.T.);
#32=CARTESIAN_POINT('',(-4.0000,3.2500,4.7500));
#33=DIRECTION('',(1.0,0.0,0.0));
#34=VECTOR('',#33,8.0000);
#35=LINE('',#32,#34);
#36=EDGE_CURVE('',#14,#16,#35,.T.);
#37=CARTESIAN_POINT('',(-4.0000,-4.4500,0.0000));
#38=DIRECTION('',(0.0,1.0,0.0));
#39=VECTOR('',#38,7.7000);
#40=LINE('',#37,#39);
#41=EDGE_CURVE('',#2,#6,#40,.T.);
#42=CARTESIAN_POINT('',(4.0000,-4.4500,0.0000));
#43=DIRECTION('',(0.0,1.0,0.0));
#44=VECTOR('',#43,7.7000);
#45=LINE('',#42,#44);
#46=EDGE_CURVE('',#4,#8,#45,.T.);
#47=CARTESIAN_POINT('',(-4.0000,-4.4500,4.7500));
#48=DIRECTION('',(0.0,1.0,0.0));
#49=VECTOR('',#48,7.7000);
#50=LINE('',#47,#49);
#51=EDGE_CURVE('',#10,#14,#50,.T.);
#52=CARTESIAN_POINT('',(4.0000,-4.4500,4.7500));
#53=DIRECTION('',(0.0,1.0,0.0));
#54=VECTOR('',#53,7.7000);
#55=LINE('',#52,#54);
#56=EDGE_CURVE('',#12,#16,#55,.T.);
#57=CARTESIAN_POINT('',(-4.0000,-4.4500,0.0000));
#58=DIRECTION('',(0.0,0.0,1.0));
#59=VECTOR('',#58,4.7500);
#60=LINE('',#57,#59);
#61=EDGE_CURVE('',#2,#10,#60,.T.);
#62=CARTESIAN_POINT('',(4.0000,-4.4500,0.0000));
#63=DIRECTION('',(0.0,0.0,1.0));
#64=VECTOR('',#63,4.7500);
#65=LINE('',#62,#64);
#66=EDGE_CURVE('',#4,#12,#65,.T.);
#67=CARTESIAN_POINT('',(-4.0000,3.2500,0.0000));
#68=DIRECTION('',(0.0,0.0,1.0));
#69=VECTOR('',#68,4.7500);
#70=LINE('',#67,#69);
#71=EDGE_CURVE('',#6,#14,#70,.T.);
#72=CARTESIAN_POINT('',(4.0000,3.2500,0.0000));
#73=DIRECTION('',(0.0,0.0,1.0));
#74=VECTOR('',#73,4.7500);
#75=LINE('',#72,#74);
#76=EDGE_CURVE('',#8,#16,#75,.T.);
#77=ORIENTED_EDGE('',*,*,#41,.T.);
#78=ORIENTED_EDGE('',*,*,#26,.T.);
#79=ORIENTED_EDGE('',*,*,#46,.F.);
#80=ORIENTED_EDGE('',*,*,#21,.F.);
#81=EDGE_LOOP('',(#77,#78,#79,#80));
#82=FACE_OUTER_BOUND('',#81,.T.);
#83=CARTESIAN_POINT('',(-4.0000,-4.4500,0.0000));
#84=DIRECTION('',(0.0,0.0,-1.0));
#85=DIRECTION('',(1.0,0.0,0.0));
#86=AXIS2_PLACEMENT_3D('',#83,#84,#85);
#87=PLANE('',#86);
#88=ADVANCED_FACE('',(#82),#87,.T.);
#89=ORIENTED_EDGE('',*,*,#31,.T.);
#90=ORIENTED_EDGE('',*,*,#56,.T.);
#91=ORIENTED_EDGE('',*,*,#36,.F.);
#92=ORIENTED_EDGE('',*,*,#51,.F.);
#93=EDGE_LOOP('',(#89,#90,#91,#92));
#94=FACE_OUTER_BOUND('',#93,.T.);
#95=CARTESIAN_POINT('',(-4.0000,-4.4500,4.7500));
#96=DIRECTION('',(0.0,0.0,1.0));
#97=DIRECTION('',(1.0,0.0,0.0));
#98=AXIS2_PLACEMENT_3D('',#95,#96,#97);
#99=PLANE('',#98);
#100=ADVANCED_FACE('',(#94),#99,.T.);
#101=ORIENTED_EDGE('',*,*,#61,.T.);
#102=ORIENTED_EDGE('',*,*,#51,.T.);
#103=ORIENTED_EDGE('',*,*,#71,.F.);
#104=ORIENTED_EDGE('',*,*,#41,.F.);
#105=EDGE_LOOP('',(#101,#102,#103,#104));
#106=FACE_OUTER_BOUND('',#105,.T.);
#107=CARTESIAN_POINT('',(-4.0000,-4.4500,0.0000));
#108=DIRECTION('',(-1.0,0.0,0.0));
#109=DIRECTION('',(0.0,1.0,0.0));
#110=AXIS2_PLACEMENT_3D('',#107,#108,#109);
#111=PLANE('',#110);
#112=ADVANCED_FACE('',(#106),#111,.T.);
#113=ORIENTED_EDGE('',*,*,#46,.T.);
#114=ORIENTED_EDGE('',*,*,#76,.T.);
#115=ORIENTED_EDGE('',*,*,#56,.F.);
#116=ORIENTED_EDGE('',*,*,#66,.F.);
#117=EDGE_LOOP('',(#113,#114,#115,#116));
#118=FACE_OUTER_BOUND('',#117,.T.);
#119=CARTESIAN_POINT('',(4.0000,-4.4500,0.0000));
#120=DIRECTION('',(1.0,0.0,0.0));
#121=DIRECTION('',(0.0,1.0,0.0));
#122=AXIS2_PLACEMENT_3D('',#119,#120,#121);
#123=PLANE('',#122);
#124=ADVANCED_FACE('',(#118),#123,.T.);
#125=ORIENTED_EDGE('',*,*,#21,.T.);
#126=ORIENTED_EDGE('',*,*,#66,.T.);
#127=ORIENTED_EDGE('',*,*,#31,.F.);
#128=ORIENTED_EDGE('',*,*,#61,.F.);
#129=EDGE_LOOP('',(#125,#126,#127,#128));
#130=FACE_OUTER_BOUND('',#129,.T.);
#131=CARTESIAN_POINT('',(-4.0000,-4.4500,0.0000));
#132=DIRECTION('',(0.0,-1.0,0.0));
#133=DIRECTION('',(1.0,0.0,0.0));
#134=AXIS2_PLACEMENT_3D('',#131,#132,#133);
#135=PLANE('',#134);
#136=ADVANCED_FACE('',(#130),#135,.T.);
#137=ORIENTED_EDGE('',*,*,#71,.T.);
#138=ORIENTED_EDGE('',*,*,#36,.T.);
#139=ORIENTED_EDGE('',*,*,#76,.F.);
#140=ORIENTED_EDGE('',*,*,#26,.F.);
#141=EDGE_LOOP('',(#137,#138,#139,#140));
#142=FACE_OUTER_BOUND('',#141,.T.);
#143=CARTESIAN_POINT('',(-4.0000,3.2500,0.0000));
#144=DIRECTION('',(0.0,1.0,0.0));
#145=DIRECTION('',(1.0,0.0,0.0));
#146=AXIS2_PLACEMENT_3D('',#143,#144,#145);
#147=PLANE('',#146);
#148=ADVANCED_FACE('',(#142),#147,.T.);
#149=CLOSED_SHELL('',(#88,#100,#112,#124,#136,#148));
#150=MANIFOLD_SOLID_BREP('JST_PH_S2B-PH-SM4-TB_1x02-1MP_P2.00mm_Horizontal',#149);
#151=(LENGTH_UNIT() NAMED_UNIT(*) SI_UNIT(.MILLI.,.METRE.));
#152=(NAMED_UNIT(*) PLANE_ANGLE_UNIT() SI_UNIT($,.RADIAN.));
#153=(NAMED_UNIT(*) SI_UNIT($,.STERADIAN.) SOLID_ANGLE_UNIT());
#154=UNCERTAINTY_MEASURE_WITH_UNIT(LENGTH_MEASURE(1.E-07),#151,'distance_accuracy_value','');
#155=(GEOMETRIC_REPRESENTATION_CONTEXT(3) GLOBAL_UNCERTAINTY_ASSIGNED_CONTEXT((#154)) GLOBAL_UNIT_ASSIGNED_CONTEXT((#151,#152,#153)) REPRESENTATION_CONTEXT('',''));
#156=CARTESIAN_POINT('',(0.0000,0.0000,0.0000));
#157=DIRECTION('',(0.0,0.0,1.0));
#158=DIRECTION('',(1.0,0.0,0.0));
#159=AXIS2_PLACEMENT_3D('',#156,#157,#158);
#160=ADVANCED_BREP_SHAPE_REPRESENTATION('JST_PH_S2B-PH-SM4-TB_1x02-1MP_P2.00mm_Horizontal',(#150,#159),#155);
#161=APPLICATION_CONTEXT('core data for automotive mechanical design processes');
#162=APPLICATION_PROTOCOL_DEFINITION('international standard','automotive_design',2000,#161);
#163=PRODUCT_CONTEXT('',#161,'mechanical');
#164=PRODUCT('JST_PH_S2B-PH-SM4-TB_1x02-1MP_P2.00mm_Horizontal','JST_PH_S2B-PH-SM4-TB_1x02-1MP_P2.00mm_Horizontal','',(#163));
#165=PRODUCT_DEFINITION_FORMATION('','',#164);
#166=PRODUCT_DEFINITION_CONTEXT('part definition',#161,'design');
#167=PRODUCT_DEFINITION('design','',#165,#166);
#168=PRODUCT_DEFINITION_SHAPE('','',#167);
#169=SHAPE_DEFINITION_REPRESENTATION(#168,#160);
ENDSEC;
END-ISO-10303-21;
