%TF.GenerationSoftware,KiCad,Pcbnew,10.0.6*%
%TF.CreationDate,2026-09-30T04:58:04-07:00*%
%TF.ProjectId,totem,746f7465-6d2e-46b6-9963-61645f706362,rev?*%
%TF.SameCoordinates,Original*%
%TF.FileFunction,Legend,Top*%
%TF.FilePolarity,Positive*%
%FSLAX46Y46*%
G04 Gerber Fmt 4.6, Leading zero omitted, Abs format (unit mm)*
G04 Created by KiCad (PCBNEW 10.0.6) date 2026-09-30 04:58:04*
%MOMM*%
%LPD*%
G01*
G04 APERTURE LIST*
G04 Aperture macros list*
%AMRoundRect*
0 Rectangle with rounded corners*
0 $1 Rounding radius*
0 $2 $3 $4 $5 $6 $7 $8 $9 X,Y pos of 4 corners*
0 Add a 4 corners polygon primitive as box body*
4,1,4,$2,$3,$4,$5,$6,$7,$8,$9,$2,$3,0*
0 Add four circle primitives for the rounded corners*
1,1,$1+$1,$2,$3*
1,1,$1+$1,$4,$5*
1,1,$1+$1,$6,$7*
1,1,$1+$1,$8,$9*
0 Add four rect primitives between the rounded corners*
20,1,$1+$1,$2,$3,$4,$5,0*
20,1,$1+$1,$4,$5,$6,$7,0*
20,1,$1+$1,$6,$7,$8,$9,0*
20,1,$1+$1,$8,$9,$2,$3,0*%
G04 Aperture macros list end*
%ADD10C,0.120000*%
%ADD11C,1.000000*%
%ADD12RoundRect,0.200000X-0.200000X-0.275000X0.200000X-0.275000X0.200000X0.275000X-0.200000X0.275000X0*%
%ADD13RoundRect,0.150000X0.150000X-0.587500X0.150000X0.587500X-0.150000X0.587500X-0.150000X-0.587500X0*%
%ADD14RoundRect,0.250000X-0.525000X-0.400000X0.525000X-0.400000X0.525000X0.400000X-0.525000X0.400000X0*%
%ADD15RoundRect,0.250000X0.475000X-0.250000X0.475000X0.250000X-0.475000X0.250000X-0.475000X-0.250000X0*%
%ADD16RoundRect,0.200000X0.275000X-0.200000X0.275000X0.200000X-0.275000X0.200000X-0.275000X-0.200000X0*%
%ADD17RoundRect,0.150000X0.150000X-0.512500X0.150000X0.512500X-0.150000X0.512500X-0.150000X-0.512500X0*%
%ADD18RoundRect,0.200000X0.053033X-0.335876X0.335876X-0.053033X-0.053033X0.335876X-0.335876X0.053033X0*%
%ADD19RoundRect,0.175000X0.425000X-0.175000X0.425000X0.175000X-0.425000X0.175000X-0.425000X-0.175000X0*%
%ADD20RoundRect,0.190000X-0.410000X0.190000X-0.410000X-0.190000X0.410000X-0.190000X0.410000X0.190000X0*%
%ADD21RoundRect,0.200000X-0.400000X0.200000X-0.400000X-0.200000X0.400000X-0.200000X0.400000X0.200000X0*%
%ADD22RoundRect,0.175000X-0.425000X0.175000X-0.425000X-0.175000X0.425000X-0.175000X0.425000X0.175000X0*%
%ADD23RoundRect,0.190000X0.410000X-0.190000X0.410000X0.190000X-0.410000X0.190000X-0.410000X-0.190000X0*%
%ADD24RoundRect,0.200000X0.400000X-0.200000X0.400000X0.200000X-0.400000X0.200000X-0.400000X-0.200000X0*%
%ADD25RoundRect,0.250000X0.425000X-0.650000X0.425000X0.650000X-0.425000X0.650000X-0.425000X-0.650000X0*%
%ADD26RoundRect,0.250000X0.500000X-0.650000X0.500000X0.650000X-0.500000X0.650000X-0.500000X-0.650000X0*%
%ADD27RoundRect,0.218750X-0.218750X-0.256250X0.218750X-0.256250X0.218750X0.256250X-0.218750X0.256250X0*%
%ADD28RoundRect,0.225000X0.250000X-0.225000X0.250000X0.225000X-0.250000X0.225000X-0.250000X-0.225000X0*%
%ADD29RoundRect,0.175000X0.725000X0.175000X-0.725000X0.175000X-0.725000X-0.175000X0.725000X-0.175000X0*%
%ADD30RoundRect,0.200000X0.700000X0.200000X-0.700000X0.200000X-0.700000X-0.200000X0.700000X-0.200000X0*%
%ADD31RoundRect,0.250000X-1.500000X0.250000X-1.500000X-0.250000X1.500000X-0.250000X1.500000X0.250000X0*%
%ADD32RoundRect,0.250001X-1.449999X0.499999X-1.449999X-0.499999X1.449999X-0.499999X1.449999X0.499999X0*%
%ADD33RoundRect,0.150000X-0.825000X-0.150000X0.825000X-0.150000X0.825000X0.150000X-0.825000X0.150000X0*%
%ADD34R,2.290000X3.000000*%
%ADD35RoundRect,0.225000X-0.225000X-0.250000X0.225000X-0.250000X0.225000X0.250000X-0.225000X0.250000X0*%
%ADD36RoundRect,0.250000X0.275000X0.250000X-0.275000X0.250000X-0.275000X-0.250000X0.275000X-0.250000X0*%
%ADD37RoundRect,0.250000X0.850000X0.275000X-0.850000X0.275000X-0.850000X-0.275000X0.850000X-0.275000X0*%
%ADD38R,1.500000X0.900000*%
%ADD39R,0.900000X1.500000*%
%ADD40R,0.900000X0.900000*%
%ADD41RoundRect,0.250000X-0.250000X-0.475000X0.250000X-0.475000X0.250000X0.475000X-0.250000X0.475000X0*%
G04 APERTURE END LIST*
%TO.C,TP4*%
D10*
X79993086Y-95008908D02*
G75*
G02*
X78593086Y-95008908I-700000J0D01*
G01*
X78593086Y-95008908D02*
G75*
G02*
X79993086Y-95008908I700000J0D01*
G01*
%TO.C,R24*%
X84562742Y-94077500D02*
X85037258Y-94077500D01*
X84562742Y-95122500D02*
X85037258Y-95122500D01*
%TO.C,Q4*%
X84840000Y-107540000D02*
X85840000Y-107540000D01*
X84840000Y-109060000D02*
X84840000Y-107540000D01*
X84890000Y-109060000D02*
X84840000Y-109060000D01*
X86790000Y-109060000D02*
X86010000Y-109060000D01*
X86960000Y-107540000D02*
X87960000Y-107540000D01*
X87960000Y-107540000D02*
X87960000Y-109060000D01*
X87960000Y-109060000D02*
X87910000Y-109060000D01*
X86020000Y-109600000D02*
X86350000Y-109360000D01*
X86350000Y-109840000D01*
X86020000Y-109600000D01*
G36*
X86350000Y-109840000D02*
G01*
X86020000Y-109600000D01*
X86350000Y-109360000D01*
X86350000Y-109840000D01*
G37*
%TO.C,R3*%
X102762742Y-98670164D02*
X103237258Y-98670164D01*
X102762742Y-99715164D02*
X103237258Y-99715164D01*
%TO.C,SW2*%
X90020000Y-114370000D02*
X96480000Y-114370000D01*
X90020000Y-114400000D02*
X90020000Y-114370000D01*
X90020000Y-116300000D02*
X90020000Y-118900000D01*
X90020000Y-120830000D02*
X90020000Y-120800000D01*
X90020000Y-120830000D02*
X96480000Y-120830000D01*
X96480000Y-114370000D02*
X96480000Y-114400000D01*
X96480000Y-116300000D02*
X96480000Y-118900000D01*
X96480000Y-120830000D02*
X96480000Y-120800000D01*
%TO.C,C10*%
X114381558Y-93961252D02*
X114381558Y-93438748D01*
X115851558Y-93961252D02*
X115851558Y-93438748D01*
%TO.C,TP2*%
X80028724Y-92866363D02*
G75*
G02*
X78628724Y-92866363I-700000J0D01*
G01*
X78628724Y-92866363D02*
G75*
G02*
X80028724Y-92866363I700000J0D01*
G01*
%TO.C,C11*%
X114014807Y-102021252D02*
X114014807Y-101498748D01*
X115484807Y-102021252D02*
X115484807Y-101498748D01*
%TO.C,TP3*%
X82171275Y-92875272D02*
G75*
G02*
X80771275Y-92875272I-700000J0D01*
G01*
X80771275Y-92875272D02*
G75*
G02*
X82171275Y-92875272I700000J0D01*
G01*
%TO.C,R1*%
X85186832Y-85087258D02*
X85186832Y-84612742D01*
X86231832Y-85087258D02*
X86231832Y-84612742D01*
%TO.C,U4*%
X81540000Y-84090000D02*
X81590000Y-84090000D01*
X81540000Y-85910000D02*
X81540000Y-84090000D01*
X81590000Y-85910000D02*
X81540000Y-85910000D01*
X82710000Y-84090000D02*
X83490000Y-84090000D01*
X84610000Y-84090000D02*
X84660000Y-84090000D01*
X84660000Y-84090000D02*
X84660000Y-85910000D01*
X84660000Y-85910000D02*
X84610000Y-85910000D01*
X81590000Y-86450000D02*
X81260000Y-86690000D01*
X81260000Y-86210000D01*
X81590000Y-86450000D01*
G36*
X81590000Y-86450000D02*
G01*
X81260000Y-86690000D01*
X81260000Y-86210000D01*
X81590000Y-86450000D01*
G37*
%TO.C,R20*%
X108678309Y-95830887D02*
X109013842Y-95495354D01*
X109417236Y-96569814D02*
X109752769Y-96234281D01*
%TO.C,C3*%
X84729999Y-89176251D02*
X84729999Y-88653747D01*
X86199999Y-89176251D02*
X86199999Y-88653747D01*
%TO.C,C13*%
X79545000Y-84951252D02*
X79545000Y-84428748D01*
X81015000Y-84951252D02*
X81015000Y-84428748D01*
%TO.C,TP5*%
X82206913Y-94991090D02*
G75*
G02*
X80806913Y-94991090I-700000J0D01*
G01*
X80806913Y-94991090D02*
G75*
G02*
X82206913Y-94991090I700000J0D01*
G01*
%TO.C,R23*%
X84562742Y-90920000D02*
X85037258Y-90920000D01*
X84562742Y-91965000D02*
X85037258Y-91965000D01*
%TO.C,Q5*%
X81074999Y-107540000D02*
X82074999Y-107540000D01*
X81074999Y-109060000D02*
X81074999Y-107540000D01*
X81124999Y-109060000D02*
X81074999Y-109060000D01*
X83024999Y-109060000D02*
X82244999Y-109060000D01*
X83194999Y-107540000D02*
X84194999Y-107540000D01*
X84194999Y-107540000D02*
X84194999Y-109060000D01*
X84194999Y-109060000D02*
X84144999Y-109060000D01*
X82254999Y-109600000D02*
X82584999Y-109360000D01*
X82584999Y-109840000D01*
X82254999Y-109600000D01*
G36*
X82584999Y-109840000D02*
G01*
X82254999Y-109600000D01*
X82584999Y-109360000D01*
X82584999Y-109840000D01*
G37*
%TO.C,R5*%
X104372549Y-100270164D02*
X104847065Y-100270164D01*
X104372549Y-101315164D02*
X104847065Y-101315164D01*
%TO.C,J1*%
X118510000Y-92300000D02*
X120140000Y-92300000D01*
X118510000Y-101500000D02*
X120140000Y-101500000D01*
%TO.C,R25*%
X84562742Y-95677500D02*
X85037258Y-95677500D01*
X84562742Y-96722500D02*
X85037258Y-96722500D01*
%TO.C,D3*%
X86615000Y-116665000D02*
X86615000Y-118135000D01*
X86615000Y-118135000D02*
X88900000Y-118135000D01*
X88900000Y-116665000D02*
X86615000Y-116665000D01*
%TO.C,C2*%
X79611249Y-88150580D02*
X79611249Y-87869420D01*
X80631249Y-88150580D02*
X80631249Y-87869420D01*
%TO.C,U2*%
X89955746Y-100548728D02*
X89955746Y-100398728D01*
X89955746Y-110718728D02*
X89955746Y-110568728D01*
X99875746Y-100398728D02*
X89955746Y-100398728D01*
X99875746Y-100548728D02*
X99875746Y-100398728D01*
X99875746Y-110718728D02*
X89955746Y-110718728D01*
X99875746Y-110718728D02*
X99875746Y-110568728D01*
X100345746Y-110568728D02*
X100585746Y-110898728D01*
X100105746Y-110898728D01*
X100345746Y-110568728D01*
G36*
X100585746Y-110898728D02*
G01*
X100105746Y-110898728D01*
X100345746Y-110568728D01*
X100585746Y-110898728D01*
G37*
%TO.C,R9*%
X79542500Y-108537258D02*
X79542500Y-108062742D01*
X80587500Y-108537258D02*
X80587500Y-108062742D01*
%TO.C,R10*%
X82262742Y-110677500D02*
X82737258Y-110677500D01*
X82262742Y-111722500D02*
X82737258Y-111722500D01*
%TO.C,TP7*%
X82171274Y-97133635D02*
G75*
G02*
X80771274Y-97133635I-700000J0D01*
G01*
X80771274Y-97133635D02*
G75*
G02*
X82171274Y-97133635I700000J0D01*
G01*
%TO.C,C15*%
X86995000Y-104661252D02*
X86995000Y-104138748D01*
X88465000Y-104661252D02*
X88465000Y-104138748D01*
%TO.C,J2*%
X111190000Y-105860000D02*
X111190000Y-110540000D01*
X114760000Y-104140000D02*
X119010000Y-104140000D01*
X114760000Y-112260000D02*
X119010000Y-112260000D01*
X117410000Y-105160000D02*
X117410000Y-106440000D01*
X117410000Y-106440000D02*
X120300000Y-106440000D01*
X117410000Y-111240000D02*
X117410000Y-109960000D01*
X119010000Y-104140000D02*
X119010000Y-105160000D01*
X119010000Y-105160000D02*
X117410000Y-105160000D01*
X119010000Y-111240000D02*
X117410000Y-111240000D01*
X119010000Y-112260000D02*
X119010000Y-111240000D01*
%TO.C,C5*%
X101165000Y-105131364D02*
X101165000Y-104608860D01*
X102635000Y-105131364D02*
X102635000Y-104608860D01*
%TO.C,SW1*%
X100170000Y-114120000D02*
X106630000Y-114120000D01*
X100170000Y-114150000D02*
X100170000Y-114120000D01*
X100170000Y-116050000D02*
X100170000Y-118650000D01*
X100170000Y-120580000D02*
X100170000Y-120550000D01*
X100170000Y-120580000D02*
X106630000Y-120580000D01*
X106630000Y-114120000D02*
X106630000Y-114150000D01*
X106630000Y-116050000D02*
X106630000Y-118650000D01*
X106630000Y-120580000D02*
X106630000Y-120550000D01*
%TO.C,U3*%
X107869807Y-97845550D02*
X111989807Y-97845550D01*
X107869807Y-97940550D02*
X107869807Y-97845550D01*
X107869807Y-102965550D02*
X107869807Y-102870550D01*
X111989807Y-97845550D02*
X111989807Y-97940550D01*
X111989807Y-102870550D02*
X111989807Y-102965550D01*
X111989807Y-102965550D02*
X107869807Y-102965550D01*
X107329807Y-97935550D02*
X107089807Y-97605550D01*
X107569807Y-97605550D01*
X107329807Y-97935550D01*
G36*
X107329807Y-97935550D02*
G01*
X107089807Y-97605550D01*
X107569807Y-97605550D01*
X107329807Y-97935550D01*
G37*
%TO.C,R2*%
X86746249Y-88187258D02*
X86746249Y-87712742D01*
X87791249Y-88187258D02*
X87791249Y-87712742D01*
%TO.C,C4*%
X84763795Y-81570000D02*
X85044955Y-81570000D01*
X84763795Y-82590000D02*
X85044955Y-82590000D01*
%TO.C,C18*%
X84659420Y-92532500D02*
X84940580Y-92532500D01*
X84659420Y-93552500D02*
X84940580Y-93552500D01*
%TO.C,C6*%
X101390000Y-108291085D02*
X101390000Y-108009925D01*
X102410000Y-108291085D02*
X102410000Y-108009925D01*
%TO.C,R4*%
X102762742Y-101822554D02*
X103237258Y-101822554D01*
X102762742Y-102867554D02*
X103237258Y-102867554D01*
%TO.C,J3*%
X82540000Y-103750000D02*
X82540000Y-101050000D01*
X85260000Y-101000000D02*
X85260000Y-101640000D01*
X85260000Y-103160000D02*
X85890000Y-103160000D01*
X85260000Y-103800000D02*
X85260000Y-103160000D01*
%TO.C,U1*%
X88650789Y-97825274D02*
X88650789Y-96875274D01*
X90050789Y-97825274D02*
X88650789Y-97825274D01*
X105650789Y-97825274D02*
X107050789Y-97825274D01*
X107050789Y-97825274D02*
X107050789Y-96875274D01*
X88650789Y-78875274D02*
X88150789Y-78875274D01*
X88650789Y-78375274D01*
X88650789Y-78875274D01*
G36*
X88650789Y-78875274D02*
G01*
X88150789Y-78875274D01*
X88650789Y-78375274D01*
X88650789Y-78875274D01*
G37*
%TO.C,TP6*%
X80028724Y-97124726D02*
G75*
G02*
X78628724Y-97124726I-700000J0D01*
G01*
X78628724Y-97124726D02*
G75*
G02*
X80028724Y-97124726I700000J0D01*
G01*
%TO.C,R22*%
X107903289Y-93089208D02*
X107903289Y-92614692D01*
X108948289Y-93089208D02*
X108948289Y-92614692D01*
%TO.C,R21*%
X111939577Y-95198303D02*
X112275110Y-94862770D01*
X112678504Y-95937230D02*
X113014037Y-95601697D01*
%TO.C,R13*%
X86786833Y-83437258D02*
X86786833Y-82962742D01*
X87831833Y-83437258D02*
X87831833Y-82962742D01*
%TO.C,R6*%
X85723030Y-114371637D02*
X86197546Y-114371637D01*
X85723030Y-115416637D02*
X86197546Y-115416637D01*
%TO.C,C14*%
X82383747Y-87435000D02*
X82906251Y-87435000D01*
X82383747Y-88905000D02*
X82906251Y-88905000D01*
%TD*%
%LPC*%
%TO.C,J3*%
G36*
X82800000Y-101460000D02*
G01*
X84890000Y-101460000D01*
X84890000Y-103340000D01*
X82800000Y-103340000D01*
X82800000Y-101460000D01*
G37*
%TD*%
D11*
%TO.C,TP4*%
X79293086Y-95008908D03*
%TD*%
D12*
%TO.C,R24*%
X83975000Y-94600000D03*
X85625000Y-94600000D03*
%TD*%
D13*
%TO.C,Q4*%
X85450000Y-109237500D03*
X87350000Y-109237500D03*
X86400000Y-107362500D03*
%TD*%
D12*
%TO.C,R3*%
X102175000Y-99192664D03*
X103825000Y-99192664D03*
%TD*%
D14*
%TO.C,SW2*%
X89270000Y-115350000D03*
X97230000Y-115350000D03*
X89270000Y-119850000D03*
X97230000Y-119850000D03*
%TD*%
D15*
%TO.C,C10*%
X115116558Y-94650000D03*
X115116558Y-92750000D03*
%TD*%
D11*
%TO.C,TP2*%
X79328724Y-92866363D03*
%TD*%
D15*
%TO.C,C11*%
X114749807Y-102710000D03*
X114749807Y-100810000D03*
%TD*%
D11*
%TO.C,TP3*%
X81471275Y-92875272D03*
%TD*%
D16*
%TO.C,R1*%
X85709332Y-85675000D03*
X85709332Y-84025000D03*
%TD*%
D17*
%TO.C,U4*%
X82150000Y-86137500D03*
X83100000Y-86137500D03*
X84050000Y-86137500D03*
X84050000Y-83862500D03*
X82150000Y-83862500D03*
%TD*%
D18*
%TO.C,R20*%
X108632176Y-96615947D03*
X109798902Y-95449221D03*
%TD*%
D15*
%TO.C,C3*%
X85464999Y-89864999D03*
X85464999Y-87964999D03*
%TD*%
%TO.C,C13*%
X80280000Y-85640000D03*
X80280000Y-83740000D03*
%TD*%
D11*
%TO.C,TP5*%
X81506913Y-94991090D03*
%TD*%
D12*
%TO.C,R23*%
X83975000Y-91442500D03*
X85625000Y-91442500D03*
%TD*%
D13*
%TO.C,Q5*%
X81684999Y-109237500D03*
X83584999Y-109237500D03*
X82634999Y-107362500D03*
%TD*%
D12*
%TO.C,R5*%
X103784807Y-100792664D03*
X105434807Y-100792664D03*
%TD*%
D19*
%TO.C,J1*%
X117517500Y-97400000D03*
D20*
X117517500Y-95380000D03*
D21*
X117517500Y-94150000D03*
D22*
X117517500Y-96400000D03*
D23*
X117517500Y-98420000D03*
D24*
X117517500Y-99650000D03*
D25*
X117572500Y-102025000D03*
D26*
X121152500Y-102025000D03*
D25*
X117572500Y-91775000D03*
D26*
X121152500Y-91775000D03*
%TD*%
D12*
%TO.C,R25*%
X83975000Y-96200000D03*
X85625000Y-96200000D03*
%TD*%
D27*
%TO.C,D3*%
X87312500Y-117400000D03*
X88887500Y-117400000D03*
%TD*%
D28*
%TO.C,C2*%
X80121249Y-88785000D03*
X80121249Y-87235000D03*
%TD*%
D29*
%TO.C,U2*%
X99665746Y-109958728D03*
D30*
X99665746Y-108858728D03*
X99665746Y-107758728D03*
X99665746Y-106658728D03*
X99665746Y-105558728D03*
X99665746Y-104458728D03*
X99665746Y-103358728D03*
X99665746Y-102258728D03*
D29*
X99665746Y-101158728D03*
X90165746Y-101158728D03*
D30*
X90165746Y-102258728D03*
X90165746Y-103358728D03*
X90165746Y-104458728D03*
X90165746Y-105558728D03*
X90165746Y-106658728D03*
X90165746Y-107758728D03*
X90165746Y-108858728D03*
D29*
X90165746Y-109958728D03*
%TD*%
D16*
%TO.C,R9*%
X80065000Y-109125000D03*
X80065000Y-107475000D03*
%TD*%
D12*
%TO.C,R10*%
X81675000Y-111200000D03*
X83325000Y-111200000D03*
%TD*%
D11*
%TO.C,TP7*%
X81471274Y-97133635D03*
%TD*%
D15*
%TO.C,C15*%
X87730000Y-105350000D03*
X87730000Y-103450000D03*
%TD*%
D31*
%TO.C,J2*%
X118550000Y-107200000D03*
X118550000Y-109200000D03*
D32*
X112800000Y-104850000D03*
X112800000Y-111550000D03*
%TD*%
D15*
%TO.C,C5*%
X101900000Y-105820112D03*
X101900000Y-103920112D03*
%TD*%
D14*
%TO.C,SW1*%
X99420000Y-115100000D03*
X107380000Y-115100000D03*
X99420000Y-119600000D03*
X107380000Y-119600000D03*
%TD*%
D33*
%TO.C,U3*%
X107454807Y-98500550D03*
X107454807Y-99770550D03*
X107454807Y-101040550D03*
X107454807Y-102310550D03*
X112404807Y-102310550D03*
X112404807Y-101040550D03*
X112404807Y-99770550D03*
X112404807Y-98500550D03*
D34*
X109929807Y-100405550D03*
%TD*%
D16*
%TO.C,R2*%
X87268749Y-88775000D03*
X87268749Y-87125000D03*
%TD*%
D35*
%TO.C,C4*%
X84129375Y-82080000D03*
X85679375Y-82080000D03*
%TD*%
%TO.C,C18*%
X84025000Y-93042500D03*
X85575000Y-93042500D03*
%TD*%
D28*
%TO.C,C6*%
X101900000Y-108925505D03*
X101900000Y-107375505D03*
%TD*%
D12*
%TO.C,R4*%
X102175000Y-102345054D03*
X103825000Y-102345054D03*
%TD*%
D36*
%TO.C,J3*%
X85425000Y-102400000D03*
D37*
X83900000Y-103875000D03*
X83900000Y-100925000D03*
%TD*%
D38*
%TO.C,U1*%
X89100789Y-79615274D03*
X89100789Y-80885274D03*
X89100789Y-82155274D03*
X89100789Y-83425274D03*
X89100789Y-84695274D03*
X89100789Y-85965274D03*
X89100789Y-87235274D03*
X89100789Y-88505274D03*
X89100789Y-89775274D03*
X89100789Y-91045274D03*
X89100789Y-92315274D03*
X89100789Y-93585274D03*
X89100789Y-94855274D03*
X89100789Y-96125274D03*
D39*
X92135789Y-97375274D03*
X93405789Y-97375274D03*
X94675789Y-97375274D03*
X95945789Y-97375274D03*
X97215789Y-97375274D03*
X98485789Y-97375274D03*
X99755789Y-97375274D03*
X101025789Y-97375274D03*
X102295789Y-97375274D03*
X103565789Y-97375274D03*
D38*
X106600789Y-96125274D03*
X106600789Y-94855274D03*
X106600789Y-93585274D03*
X106600789Y-92315274D03*
X106600789Y-91045274D03*
X106600789Y-89775274D03*
X106600789Y-88505274D03*
X106600789Y-87235274D03*
X106600789Y-85965274D03*
X106600789Y-84695274D03*
X106600789Y-83425274D03*
X106600789Y-82155274D03*
X106600789Y-80885274D03*
X106600789Y-79615274D03*
D40*
X94950789Y-85935274D03*
X94950789Y-87335274D03*
X94950789Y-88735274D03*
X96350789Y-85935274D03*
X96350789Y-87335274D03*
X96350789Y-88735274D03*
X97750789Y-85935274D03*
X97750789Y-87335274D03*
X97750789Y-88735274D03*
%TD*%
D11*
%TO.C,TP6*%
X79328724Y-97124726D03*
%TD*%
D16*
%TO.C,R22*%
X108425789Y-93676950D03*
X108425789Y-92026950D03*
%TD*%
D18*
%TO.C,R21*%
X111893444Y-95983363D03*
X113060170Y-94816637D03*
%TD*%
D16*
%TO.C,R13*%
X87309333Y-84025000D03*
X87309333Y-82375000D03*
%TD*%
D12*
%TO.C,R6*%
X85135288Y-114894137D03*
X86785288Y-114894137D03*
%TD*%
D41*
%TO.C,C14*%
X81694999Y-88170000D03*
X83594999Y-88170000D03*
%TD*%
%LPD*%
M02*
