M48
; DRILL file KiCad 10.0.6 date 2026-09-30T04:01:32
; FORMAT={-:-/ absolute / metric / decimal}
; #@! TF.CreationDate,2026-09-30T04:01:32-07:00
; #@! TF.GenerationSoftware,Kicad,Pcbnew,10.0.6
; #@! TF.FileFunction,Plated,1,4,PTH
FMAT,2
METRIC
; #@! TA.AperFunction,Plated,PTH,ViaDrill
T1C0.200
%
G90
G05
T1
X79.0Y-112.0
X79.1Y-92.05
X79.2Y-89.35
X80.85Y-98.4
X80.95Y-110.6
X81.15Y-99.4
X81.25Y-95.9
X81.45Y-101.15
X81.5Y-82.85
X81.55Y-102.1
X81.85Y-92.1
X82.1Y-97.7
X82.15Y-103.75
X82.2Y-96.55
X82.5Y-90.65
X82.75Y-89.75
X82.75Y-93.1
X82.8Y-83.75
X83.0Y-94.0
X83.0Y-97.0
X83.0Y-98.0
X83.1Y-96.25
X83.2Y-104.75
X83.25Y-91.45
X83.25Y-94.95
X83.35Y-82.1
X83.4Y-89.4
X83.55Y-106.25
X83.6Y-112.15
X83.9Y-100.05
X83.9Y-106.85
X84.0Y-90.0
X84.0Y-105.0
X84.3Y-111.3
X84.35Y-87.35
X84.45Y-88.5
X85.0Y-96.8
X85.0Y-99.0
X85.0Y-100.0
X85.0Y-116.0
X85.0Y-118.0
X85.0Y-120.0
X85.05Y-90.7
X85.15Y-86.7
X85.3Y-88.8
X86.0Y-98.0
X86.0Y-99.0
X86.0Y-100.0
X86.1Y-92.3
X86.1Y-101.6
X86.2Y-108.65
X86.2Y-109.4
X86.4Y-81.6
X86.55Y-109.9
X86.55Y-117.4
X86.65Y-86.3
X87.0Y-90.0
X87.0Y-91.0
X87.0Y-94.0
X87.0Y-95.0
X87.0Y-99.0
X87.0Y-100.0
X87.0Y-104.0
X87.0Y-120.0
X87.3Y-84.75
X87.35Y-86.35
X87.5Y-110.45
X87.65Y-105.95
X87.75Y-79.8
X87.75Y-103.9
X87.9Y-85.0
X87.95Y-107.35
X88.0Y-97.0
X88.0Y-98.0
X88.05Y-114.6
X88.55Y-111.5
X88.9Y-102.2
X89.0Y-98.0
X89.1Y-78.8
X89.65Y-118.85
X89.7Y-112.3
X90.0Y-99.0
X90.0Y-111.0
X90.1Y-116.65
X90.15Y-100.45
X90.2Y-84.85
X90.2Y-92.8
X90.25Y-82.75
X90.3Y-90.2
X90.75Y-117.65
X90.95Y-90.8
X91.0Y-83.0
X91.0Y-84.0
X91.0Y-87.0
X91.0Y-88.0
X91.0Y-100.0
X91.0Y-111.0
X91.0Y-112.0
X91.05Y-82.1
X91.15Y-113.05
X91.2Y-116.9
X91.25Y-98.3
X91.4Y-103.35
X91.5Y-101.9
X92.0Y-82.0
X92.0Y-83.0
X92.0Y-84.0
X92.0Y-85.0
X92.0Y-87.0
X92.0Y-105.0
X92.0Y-106.0
X92.0Y-107.0
X92.0Y-108.0
X92.0Y-111.0
X92.0Y-112.0
X92.0Y-113.0
X92.05Y-103.4
X92.2Y-98.75
X92.7Y-81.45
X92.7Y-100.7
X92.85Y-95.15
X93.0Y-82.0
X93.0Y-83.0
X93.0Y-84.0
X93.0Y-85.0
X93.0Y-113.7
X93.2Y-110.85
X93.65Y-121.4
X94.0Y-82.0
X94.0Y-83.0
X94.0Y-84.0
X94.0Y-85.65
X94.0Y-88.0
X94.0Y-103.0
X94.0Y-104.0
X94.0Y-106.0
X94.0Y-107.0
X94.0Y-108.0
X94.0Y-109.0
X94.0Y-110.0
X94.05Y-112.5
X94.15Y-87.35
X94.15Y-88.7
X94.3Y-93.45
X94.35Y-81.05
X94.4Y-92.3
X94.5Y-114.15
X94.95Y-85.15
X94.95Y-103.0
X95.0Y-82.0
X95.0Y-83.0
X95.0Y-84.0
X95.0Y-92.0
X95.0Y-93.0
X95.0Y-107.0
X95.0Y-108.0
X95.0Y-109.0
X95.0Y-110.0
X95.0Y-111.0
X95.25Y-114.05
X95.35Y-102.25
X95.4Y-112.7
X95.65Y-88.05
X95.85Y-91.1
X96.0Y-82.0
X96.0Y-83.0
X96.0Y-84.0
X96.0Y-92.0
X96.0Y-93.0
X96.0Y-108.0
X96.0Y-109.0
X96.0Y-110.0
X96.0Y-111.0
X96.0Y-112.0
X96.0Y-114.0
X96.1Y-119.45
X96.15Y-80.7
X96.2Y-94.35
X96.35Y-85.15
X96.55Y-99.15
X96.55Y-114.25
X96.55Y-121.45
X97.0Y-81.0
X97.0Y-82.0
X97.0Y-83.0
X97.0Y-84.0
X97.0Y-85.0
X97.0Y-91.0
X97.0Y-92.0
X97.0Y-93.0
X97.0Y-94.0
X97.0Y-109.0
X97.0Y-110.0
X97.0Y-111.0
X97.0Y-112.0
X97.05Y-86.65
X97.55Y-114.1
X97.9Y-98.7
X97.95Y-80.6
X98.0Y-82.0
X98.0Y-83.0
X98.0Y-84.0
X98.0Y-85.0
X98.0Y-91.0
X98.0Y-92.0
X98.0Y-93.0
X98.0Y-104.45
X98.0Y-110.0
X98.0Y-111.0
X98.0Y-112.0
X98.0Y-113.0
X98.35Y-101.55
X98.45Y-117.0
X98.45Y-120.45
X98.5Y-88.0
X98.85Y-98.6
X99.0Y-81.0
X99.0Y-82.0
X99.0Y-83.0
X99.0Y-84.0
X99.0Y-85.0
X99.0Y-91.0
X99.0Y-92.0
X99.0Y-111.0
X99.0Y-112.0
X99.0Y-113.0
X99.25Y-99.5
X99.6Y-90.95
X99.65Y-110.65
X99.75Y-80.7
X100.0Y-82.0
X100.0Y-83.0
X100.0Y-84.0
X100.0Y-85.0
X100.0Y-94.0
X100.0Y-95.0
X100.0Y-112.0
X100.0Y-113.0
X100.15Y-116.95
X100.3Y-118.1
X100.6Y-110.8
X100.7Y-114.35
X100.95Y-105.15
X101.0Y-82.0
X101.0Y-83.0
X101.0Y-84.0
X101.0Y-85.0
X101.0Y-87.0
X101.0Y-93.0
X101.0Y-94.0
X101.0Y-95.65
X101.0Y-100.0
X101.0Y-107.0
X101.0Y-107.65
X101.0Y-112.0
X101.4Y-102.85
X101.4Y-108.1
X101.4Y-109.65
X101.5Y-80.95
X101.6Y-114.1
X101.95Y-93.05
X102.0Y-82.0
X102.0Y-83.0
X102.0Y-84.0
X102.0Y-85.0
X102.0Y-87.0
X102.0Y-94.0
X102.0Y-112.0
X102.35Y-94.95
X102.7Y-120.85
X102.85Y-99.7
X102.9Y-121.45
X103.0Y-81.4
X103.0Y-82.0
X103.0Y-83.0
X103.0Y-84.0
X103.0Y-85.0
X103.0Y-112.0
X103.05Y-101.15
X103.2Y-101.75
X103.25Y-113.65
X103.3Y-104.35
X103.55Y-103.5
X103.75Y-108.55
X103.85Y-119.25
X104.0Y-82.0
X104.0Y-83.0
X104.0Y-84.0
X104.0Y-85.0
X104.0Y-88.0
X104.0Y-89.0
X104.0Y-113.0
X104.1Y-103.2
X104.3Y-98.45
X104.3Y-120.6
X104.45Y-108.0
X104.85Y-82.05
X104.9Y-113.0
X105.0Y-83.0
X105.0Y-88.0
X105.0Y-103.0
X105.0Y-112.0
X105.0Y-122.0
X105.15Y-98.9
X105.15Y-108.35
X105.3Y-118.7
X105.4Y-82.35
X105.5Y-84.0
X105.5Y-84.75
X106.0Y-98.0
X106.0Y-99.0
X106.0Y-112.0
X106.05Y-120.0
X106.15Y-100.0
X106.15Y-102.05
X106.2Y-100.65
X106.3Y-109.2
X106.6Y-78.8
X106.6Y-112.1
X106.9Y-118.5
X107.0Y-105.6
X107.0Y-111.0
X107.1Y-103.1
X107.1Y-106.55
X107.6Y-97.85
X107.7Y-94.95
X107.85Y-83.8
X108.0Y-85.0
X108.0Y-86.0
X108.0Y-87.0
X108.0Y-88.0
X108.0Y-89.0
X108.0Y-90.0
X108.0Y-91.0
X108.0Y-108.8
X108.05Y-111.15
X108.2Y-92.95
X108.75Y-104.5
X108.8Y-102.4
X108.8Y-103.4
X108.85Y-107.4
X108.95Y-106.3
X109.0Y-86.0
X109.0Y-87.0
X109.0Y-88.0
X109.0Y-89.0
X109.0Y-90.0
X109.0Y-91.0
X109.0Y-98.0
X109.0Y-109.0
X109.2Y-84.9
X109.35Y-97.05
X109.35Y-110.1
X109.9Y-117.75
X109.95Y-102.25
X110.0Y-87.0
X110.0Y-88.0
X110.0Y-89.0
X110.0Y-90.0
X110.0Y-91.0
X110.0Y-92.0
X110.0Y-98.0
X110.0Y-103.0
X110.0Y-104.0
X110.0Y-108.0
X110.0Y-109.0
X110.35Y-94.9
X110.4Y-86.1
X110.7Y-108.7
X110.85Y-113.6
X111.0Y-88.0
X111.0Y-89.0
X111.0Y-90.0
X111.0Y-91.0
X111.0Y-94.0
X111.0Y-95.0
X111.0Y-97.0
X111.0Y-103.0
X111.0Y-107.0
X111.0Y-108.0
X111.1Y-98.4
X111.65Y-87.55
X111.75Y-107.35
X112.0Y-89.0
X112.0Y-90.0
X112.0Y-91.0
X112.0Y-93.0
X112.0Y-97.0
X112.65Y-89.05
X112.65Y-103.6
X112.65Y-106.05
X113.0Y-90.0
X113.0Y-93.0
X113.0Y-96.0
X113.0Y-97.0
X113.3Y-103.65
X113.45Y-90.65
X113.65Y-94.35
X113.95Y-92.15
X114.0Y-96.0
X114.0Y-97.0
X114.05Y-92.75
X114.2Y-99.8
X114.5Y-101.65
X114.75Y-99.0
X114.8Y-97.15
X114.85Y-95.8
X115.0Y-86.0
X115.0Y-112.0
X116.25Y-106.85
X116.75Y-105.8
X117.0Y-86.0
X117.0Y-88.0
X117.0Y-112.0
X117.2Y-90.35
X117.5Y-93.4
X118.55Y-110.05
X118.6Y-91.8
X118.6Y-102.05
X119.0Y-88.0
X119.0Y-90.0
X119.0Y-104.0
X119.0Y-106.0
X119.0Y-112.0
X120.05Y-91.8
X121.0Y-90.0
X121.0Y-94.0
X121.0Y-96.0
X121.0Y-98.0
X121.0Y-100.0
X121.0Y-104.0
X121.0Y-106.0
X121.0Y-108.0
X122.25Y-102.05
M30
