M48
; DRILL file KiCad 10.0.6 date 2026-09-30T04:58:05
; FORMAT={-:-/ absolute / metric / decimal}
; #@! TF.CreationDate,2026-09-30T04:58:05-07:00
; #@! TF.GenerationSoftware,Kicad,Pcbnew,10.0.6
; #@! TF.FileFunction,Plated,1,4,PTH
FMAT,2
METRIC
; #@! TA.AperFunction,Plated,PTH,ViaDrill
T1C0.200
%
G90
G05
T1
X79.0Y-112.0
X79.1Y-92.05
X79.2Y-89.35
X79.35Y-106.15
X80.25Y-111.0
X80.85Y-98.4
X80.95Y-109.6
X81.15Y-99.4
X81.25Y-95.9
X81.45Y-101.15
X81.5Y-82.85
X81.55Y-102.1
X81.75Y-98.15
X81.85Y-92.1
X81.95Y-99.3
X82.0Y-94.3
X82.2Y-96.55
X82.35Y-104.25
X82.5Y-90.65
X82.5Y-111.6
X82.75Y-89.75
X82.8Y-83.75
X82.9Y-112.35
X83.0Y-94.0
X83.0Y-96.0
X83.0Y-97.0
X83.0Y-99.0
X83.0Y-105.0
X83.25Y-91.45
X83.25Y-94.95
X83.35Y-82.1
X83.4Y-89.4
X83.45Y-105.8
X83.55Y-106.85
X83.6Y-112.15
X83.9Y-100.05
X84.3Y-104.75
X84.3Y-107.45
X84.35Y-87.35
X84.35Y-113.5
X84.45Y-88.5
X85.0Y-96.8
X85.0Y-100.0
X85.0Y-105.0
X85.0Y-116.0
X85.0Y-118.0
X85.0Y-120.0
X85.05Y-90.7
X85.3Y-88.8
X85.95Y-113.7
X86.0Y-100.0
X86.0Y-104.0
X86.0Y-105.0
X86.0Y-106.0
X86.2Y-108.65
X86.2Y-109.4
X86.25Y-87.05
X86.4Y-81.6
X86.4Y-93.2
X86.55Y-85.05
X86.55Y-109.9
X86.55Y-117.4
X87.0Y-87.9
X87.0Y-90.0
X87.0Y-91.0
X87.0Y-92.0
X87.0Y-100.0
X87.0Y-120.0
X87.25Y-108.15
X87.3Y-84.75
X87.55Y-94.5
X87.6Y-104.3
X87.75Y-79.8
X87.75Y-97.25
X87.8Y-121.2
X88.0Y-100.0
X88.3Y-110.8
X88.3Y-116.55
X88.65Y-111.8
X88.75Y-106.35
X88.8Y-121.35
X89.0Y-100.0
X89.0Y-111.0
X89.1Y-78.8
X89.3Y-97.25
X89.95Y-100.45
X89.95Y-112.4
X90.0Y-98.0
X90.0Y-99.0
X90.0Y-111.0
X90.2Y-84.45
X90.25Y-82.75
X90.35Y-92.5
X90.45Y-121.05
X90.5Y-96.4
X90.5Y-121.9
X90.75Y-117.7
X91.0Y-83.0
X91.0Y-89.0
X91.0Y-99.0
X91.0Y-111.0
X91.0Y-112.0
X91.05Y-82.1
X91.15Y-113.05
X91.35Y-97.6
X91.4Y-103.6
X91.5Y-84.85
X91.8Y-91.6
X91.85Y-95.35
X92.0Y-82.0
X92.0Y-83.0
X92.0Y-84.0
X92.0Y-88.0
X92.0Y-94.0
X92.0Y-99.0
X92.0Y-100.0
X92.0Y-101.0
X92.0Y-106.0
X92.0Y-107.0
X92.0Y-108.0
X92.0Y-109.0
X92.0Y-110.0
X92.0Y-113.0
X92.5Y-95.35
X92.7Y-81.45
X92.75Y-94.25
X92.8Y-90.55
X93.0Y-82.0
X93.0Y-83.0
X93.0Y-84.0
X93.0Y-100.0
X93.0Y-103.0
X93.0Y-104.0
X93.0Y-105.0
X93.0Y-107.0
X93.0Y-108.0
X93.0Y-109.0
X93.0Y-110.0
X93.0Y-111.0
X93.0Y-113.7
X93.65Y-121.4
X93.8Y-113.85
X94.0Y-82.0
X94.0Y-83.0
X94.0Y-84.0
X94.0Y-102.0
X94.0Y-103.0
X94.0Y-104.0
X94.0Y-105.0
X94.0Y-106.0
X94.0Y-109.0
X94.0Y-110.0
X94.0Y-111.0
X94.0Y-112.0
X94.15Y-87.35
X94.15Y-89.25
X94.15Y-91.7
X94.25Y-99.8
X94.35Y-81.05
X94.4Y-92.3
X94.5Y-114.15
X94.95Y-85.15
X95.0Y-82.0
X95.0Y-83.0
X95.0Y-84.0
X95.0Y-102.0
X95.0Y-103.0
X95.0Y-104.0
X95.0Y-105.0
X95.0Y-106.0
X95.0Y-107.0
X95.0Y-110.0
X95.0Y-111.0
X95.8Y-92.65
X96.0Y-82.0
X96.0Y-83.0
X96.0Y-84.0
X96.0Y-92.0
X96.0Y-103.0
X96.0Y-104.0
X96.0Y-105.0
X96.0Y-106.0
X96.0Y-107.0
X96.0Y-108.0
X96.0Y-111.0
X96.0Y-114.0
X96.1Y-119.45
X96.15Y-80.7
X96.35Y-85.15
X96.5Y-95.05
X96.55Y-114.25
X96.55Y-121.45
X96.7Y-98.85
X96.8Y-102.45
X96.9Y-90.2
X97.0Y-81.0
X97.0Y-82.0
X97.0Y-83.0
X97.0Y-84.0
X97.0Y-85.0
X97.0Y-93.0
X97.0Y-104.0
X97.0Y-107.0
X97.0Y-108.0
X97.0Y-109.0
X97.05Y-88.05
X97.05Y-100.3
X97.55Y-114.1
X97.65Y-93.95
X97.7Y-99.65
X97.7Y-104.1
X97.75Y-85.15
X97.95Y-80.6
X97.95Y-101.3
X98.0Y-82.0
X98.0Y-83.0
X98.0Y-84.0
X98.0Y-109.0
X98.0Y-110.0
X98.0Y-113.0
X98.1Y-91.05
X98.1Y-98.6
X98.3Y-108.0
X98.45Y-117.0
X98.45Y-120.45
X98.55Y-88.95
X98.55Y-99.4
X99.0Y-81.0
X99.0Y-82.0
X99.0Y-83.0
X99.0Y-84.0
X99.0Y-85.0
X99.0Y-87.0
X99.0Y-111.0
X99.0Y-113.0
X99.1Y-90.4
X99.35Y-90.95
X99.4Y-99.95
X99.75Y-80.7
X99.8Y-118.05
X100.0Y-82.0
X100.0Y-83.0
X100.0Y-84.0
X100.0Y-87.0
X100.0Y-92.0
X100.0Y-111.0
X100.0Y-113.0
X100.15Y-117.35
X100.4Y-91.45
X100.7Y-114.35
X100.9Y-103.25
X100.9Y-110.0
X100.95Y-107.1
X101.0Y-82.0
X101.0Y-83.0
X101.0Y-84.0
X101.0Y-87.0
X101.0Y-92.0
X101.0Y-93.0
X101.0Y-111.0
X101.0Y-113.0
X101.05Y-104.95
X101.4Y-108.1
X101.4Y-109.65
X101.5Y-80.95
X101.55Y-103.05
X101.6Y-114.1
X101.7Y-101.55
X101.95Y-93.05
X102.0Y-82.0
X102.0Y-83.0
X102.0Y-84.0
X102.0Y-92.0
X102.0Y-111.0
X102.0Y-113.0
X102.1Y-94.35
X102.6Y-108.05
X102.7Y-120.85
X102.9Y-99.6
X102.9Y-121.45
X102.95Y-100.6
X103.0Y-81.4
X103.0Y-82.0
X103.0Y-83.0
X103.0Y-84.0
X103.0Y-88.0
X103.0Y-96.0
X103.0Y-111.0
X103.25Y-113.65
X103.3Y-101.65
X103.3Y-104.35
X103.85Y-119.25
X103.9Y-103.6
X104.0Y-82.0
X104.0Y-83.0
X104.0Y-84.0
X104.0Y-87.0
X104.0Y-88.0
X104.0Y-90.0
X104.0Y-95.0
X104.05Y-108.5
X104.3Y-120.6
X104.45Y-103.35
X104.7Y-96.3
X104.85Y-82.05
X104.9Y-102.4
X104.9Y-113.0
X105.0Y-83.0
X105.0Y-87.0
X105.0Y-89.0
X105.0Y-90.0
X105.0Y-91.0
X105.0Y-92.0
X105.0Y-99.0
X105.0Y-103.0
X105.0Y-108.8
X105.3Y-118.7
X105.4Y-82.35
X105.5Y-85.05
X105.95Y-120.55
X106.0Y-98.0
X106.0Y-99.0
X106.0Y-102.0
X106.0Y-103.0
X106.2Y-100.65
X106.5Y-121.55
X106.6Y-78.8
X106.6Y-112.1
X106.9Y-108.05
X107.0Y-105.6
X107.0Y-107.15
X107.35Y-104.3
X107.6Y-97.85
X107.7Y-96.2
X107.85Y-83.8
X107.85Y-90.75
X108.0Y-85.0
X108.0Y-86.0
X108.0Y-87.0
X108.0Y-88.0
X108.0Y-89.0
X108.0Y-90.0
X108.0Y-109.35
X108.05Y-111.15
X108.3Y-108.8
X108.4Y-92.8
X108.8Y-102.7
X108.8Y-103.4
X108.85Y-106.55
X109.0Y-86.0
X109.0Y-87.0
X109.0Y-88.0
X109.0Y-89.0
X109.0Y-90.0
X109.0Y-91.0
X109.0Y-98.0
X109.0Y-104.0
X109.0Y-105.0
X109.0Y-108.0
X109.0Y-116.0
X109.2Y-84.9
X109.25Y-93.9
X109.35Y-97.05
X109.35Y-110.1
X109.9Y-117.75
X109.95Y-102.25
X110.0Y-87.0
X110.0Y-88.0
X110.0Y-89.0
X110.0Y-90.0
X110.0Y-91.0
X110.0Y-103.0
X110.1Y-104.8
X110.15Y-108.25
X110.2Y-98.4
X110.35Y-94.9
X110.4Y-86.1
X110.6Y-92.85
X110.7Y-108.7
X111.0Y-88.0
X111.0Y-89.0
X111.0Y-90.0
X111.0Y-91.0
X111.0Y-92.0
X111.0Y-97.0
X111.0Y-106.0
X111.35Y-103.1
X111.65Y-87.55
X111.75Y-107.35
X112.0Y-89.0
X112.0Y-90.0
X112.0Y-91.0
X112.65Y-89.05
X112.65Y-106.05
X113.0Y-90.0
X113.0Y-93.0
X113.0Y-96.0
X113.3Y-103.65
X113.45Y-90.65
X113.65Y-94.35
X113.7Y-101.7
X113.95Y-92.15
X114.0Y-96.0
X114.05Y-92.75
X114.2Y-98.65
X114.2Y-99.8
X114.5Y-101.65
X114.75Y-99.0
X114.8Y-97.15
X114.85Y-95.8
X115.0Y-86.0
X115.0Y-112.0
X117.0Y-86.0
X117.0Y-88.0
X117.0Y-112.0
X117.2Y-90.4
X117.5Y-93.4
X118.55Y-110.05
X118.6Y-91.8
X118.6Y-102.05
X119.0Y-88.0
X119.0Y-90.0
X119.0Y-104.0
X119.0Y-112.0
X120.05Y-91.8
X121.0Y-90.0
X121.0Y-94.0
X121.0Y-96.0
X121.0Y-98.0
X121.0Y-100.0
X121.0Y-104.0
X121.0Y-106.0
X121.0Y-108.0
X122.25Y-102.05
M30
