M48
; DRILL file KiCad 10.0.6 date 2026-09-30T22:29:47
; FORMAT={-:-/ absolute / metric / decimal}
; #@! TF.CreationDate,2026-09-30T22:29:47-07:00
; #@! TF.GenerationSoftware,Kicad,Pcbnew,10.0.6
; #@! TF.FileFunction,Plated,1,4,PTH
FMAT,2
METRIC
; #@! TA.AperFunction,Plated,PTH,ViaDrill
T1C0.200
; #@! TA.AperFunction,Plated,PTH,ViaDrill
T2C0.300
; #@! TA.AperFunction,Plated,PTH,ComponentDrill
T3C0.750
%
G90
G05
T1
X79.0Y-106.0
X79.0Y-108.0
X79.0Y-112.0
X79.1Y-92.05
X79.2Y-89.35
X80.3Y-110.2
X80.85Y-98.4
X81.15Y-99.4
X81.45Y-101.15
X81.5Y-82.85
X81.55Y-102.1
X81.85Y-92.1
X81.9Y-94.25
X82.1Y-97.7
X82.2Y-93.3
X82.2Y-96.55
X82.25Y-95.55
X82.25Y-99.8
X82.5Y-90.65
X82.75Y-89.75
X82.8Y-83.75
X82.85Y-109.85
X83.0Y-94.0
X83.0Y-96.0
X83.0Y-97.0
X83.0Y-98.0
X83.2Y-104.75
X83.25Y-91.45
X83.3Y-95.1
X83.35Y-82.1
X83.4Y-89.4
X83.55Y-106.25
X84.0Y-90.0
X84.0Y-99.0
X84.15Y-100.05
X84.35Y-87.35
X84.45Y-88.5
X84.6Y-97.4
X84.6Y-107.25
X85.0Y-98.0
X85.0Y-99.0
X85.0Y-100.0
X85.0Y-106.0
X85.0Y-116.0
X85.0Y-120.0
X85.05Y-90.7
X85.15Y-86.7
X85.3Y-88.8
X86.0Y-87.0
X86.0Y-97.0
X86.0Y-98.0
X86.0Y-99.0
X86.0Y-100.0
X86.0Y-106.0
X86.2Y-109.4
X86.4Y-81.6
X86.4Y-96.2
X86.4Y-108.6
X86.55Y-117.4
X86.75Y-93.0
X86.75Y-94.95
X86.75Y-102.75
X87.0Y-99.0
X87.0Y-100.0
X87.0Y-120.0
X87.3Y-84.75
X87.35Y-86.35
X87.5Y-110.45
X87.65Y-98.2
X87.7Y-100.8
X87.75Y-79.8
X87.85Y-93.6
X88.0Y-95.3
X88.0Y-104.3
X88.15Y-106.35
X88.25Y-111.15
X88.35Y-97.5
X88.85Y-106.1
X88.9Y-99.0
X89.1Y-78.8
X89.25Y-110.75
X89.35Y-111.65
X89.65Y-118.85
X89.7Y-112.3
X90.0Y-98.0
X90.0Y-111.0
X90.2Y-92.8
X90.2Y-93.55
X90.25Y-82.75
X90.3Y-87.3
X90.3Y-89.7
X90.45Y-100.45
X90.7Y-96.3
X90.85Y-91.5
X90.95Y-98.55
X91.0Y-84.0
X91.0Y-88.0
X91.0Y-94.0
X91.0Y-95.0
X91.0Y-111.0
X91.0Y-112.0
X91.05Y-82.1
X91.1Y-88.9
X91.1Y-92.65
X91.1Y-99.65
X91.15Y-113.05
X91.4Y-103.35
X91.45Y-90.4
X91.5Y-105.4
X91.55Y-104.05
X91.75Y-89.35
X92.0Y-82.0
X92.0Y-84.0
X92.0Y-85.0
X92.0Y-109.0
X92.0Y-110.0
X92.0Y-111.0
X92.0Y-112.0
X92.0Y-113.0
X92.2Y-106.65
X92.35Y-102.6
X92.35Y-104.35
X92.7Y-81.45
X93.0Y-84.0
X93.0Y-85.0
X93.0Y-86.0
X93.0Y-109.0
X93.0Y-110.0
X93.0Y-111.0
X93.0Y-112.0
X93.0Y-113.7
X93.05Y-95.2
X93.05Y-104.35
X93.3Y-98.95
X93.6Y-107.4
X93.65Y-121.4
X93.85Y-113.9
X94.0Y-82.0
X94.0Y-84.0
X94.0Y-85.0
X94.0Y-100.0
X94.0Y-101.0
X94.0Y-102.0
X94.0Y-103.0
X94.0Y-109.0
X94.0Y-110.0
X94.0Y-111.0
X94.0Y-112.0
X94.15Y-87.6
X94.2Y-86.75
X94.25Y-92.1
X94.35Y-81.05
X94.45Y-94.55
X94.5Y-114.15
X95.0Y-82.0
X95.0Y-84.0
X95.0Y-85.0
X95.0Y-92.0
X95.0Y-94.0
X95.0Y-102.0
X95.0Y-103.0
X95.0Y-104.0
X95.0Y-110.0
X95.0Y-111.0
X95.0Y-112.0
X95.55Y-91.2
X95.8Y-93.95
X96.0Y-82.0
X96.0Y-85.0
X96.0Y-92.0
X96.0Y-93.0
X96.0Y-96.0
X96.0Y-111.0
X96.0Y-112.0
X96.0Y-114.0
X96.1Y-119.45
X96.15Y-80.7
X96.45Y-108.7
X96.55Y-121.45
X96.65Y-114.25
X96.75Y-90.45
X97.0Y-81.0
X97.0Y-82.0
X97.0Y-83.0
X97.0Y-112.0
X97.05Y-86.65
X97.05Y-88.05
X97.2Y-99.9
X97.35Y-98.9
X97.75Y-107.9
X97.8Y-105.25
X97.95Y-80.6
X97.95Y-92.7
X97.95Y-101.3
X98.0Y-82.0
X98.0Y-83.0
X98.0Y-91.0
X98.0Y-104.6
X98.0Y-106.0
X98.0Y-107.0
X98.0Y-112.0
X98.0Y-113.0
X98.1Y-90.2
X98.1Y-99.9
X98.1Y-109.8
X98.45Y-117.0
X98.45Y-120.45
X98.55Y-87.6
X98.65Y-86.9
X98.9Y-112.75
X99.0Y-81.0
X99.0Y-82.0
X99.0Y-83.0
X99.0Y-84.0
X99.0Y-94.0
X99.0Y-100.0
X99.1Y-113.95
X99.15Y-99.3
X99.15Y-112.1
X99.6Y-90.95
X99.65Y-110.65
X99.75Y-80.7
X100.0Y-82.0
X100.0Y-83.0
X100.0Y-84.0
X100.0Y-87.0
X100.25Y-93.5
X100.6Y-114.35
X100.65Y-112.9
X100.75Y-92.9
X100.9Y-102.2
X101.0Y-82.0
X101.0Y-83.0
X101.0Y-84.0
X101.0Y-102.9
X101.05Y-104.8
X101.05Y-106.6
X101.15Y-110.4
X101.25Y-109.55
X101.4Y-108.1
X101.45Y-91.3
X101.5Y-80.95
X101.6Y-114.1
X102.0Y-82.0
X102.0Y-83.0
X102.0Y-84.0
X102.0Y-88.0
X102.0Y-113.0
X102.15Y-92.65
X102.15Y-117.65
X102.5Y-108.15
X102.7Y-120.85
X102.8Y-91.2
X103.0Y-81.4
X103.0Y-83.0
X103.0Y-84.0
X103.0Y-89.0
X103.0Y-113.0
X103.15Y-103.75
X103.15Y-108.35
X103.2Y-104.65
X103.25Y-113.65
X103.3Y-101.65
X103.85Y-119.25
X103.9Y-94.9
X104.0Y-82.0
X104.0Y-83.0
X104.0Y-113.0
X104.1Y-90.1
X104.25Y-100.05
X104.3Y-120.6
X104.4Y-121.3
X104.6Y-108.55
X104.8Y-95.4
X104.85Y-82.05
X104.9Y-113.0
X105.0Y-87.0
X105.0Y-88.0
X105.1Y-105.4
X105.3Y-118.7
X105.35Y-103.65
X105.4Y-82.45
X105.4Y-91.45
X105.5Y-83.35
X105.7Y-111.15
X106.1Y-104.25
X106.15Y-99.9
X106.2Y-100.65
X106.4Y-109.7
X106.55Y-118.55
X106.6Y-78.8
X106.6Y-107.0
X106.6Y-108.7
X106.6Y-112.1
X107.0Y-104.0
X107.7Y-96.85
X107.8Y-84.4
X107.85Y-94.85
X108.0Y-86.0
X108.0Y-87.0
X108.0Y-88.0
X108.0Y-89.0
X108.0Y-91.0
X108.05Y-111.15
X108.2Y-92.8
X108.35Y-97.85
X108.75Y-108.75
X109.0Y-86.0
X109.0Y-87.0
X109.0Y-88.0
X109.0Y-89.0
X109.0Y-91.0
X109.1Y-85.15
X109.25Y-93.4
X109.35Y-110.1
X109.4Y-102.55
X109.45Y-104.2
X109.45Y-108.8
X109.9Y-117.75
X110.0Y-87.0
X110.0Y-88.0
X110.0Y-89.0
X110.0Y-91.0
X110.0Y-93.0
X110.0Y-94.0
X110.35Y-94.9
X110.4Y-86.1
X110.6Y-107.0
X110.7Y-108.7
X110.75Y-105.2
X110.85Y-95.4
X110.85Y-106.2
X110.9Y-96.85
X111.0Y-88.0
X111.0Y-89.0
X111.0Y-91.0
X111.0Y-93.0
X111.0Y-94.0
X111.0Y-107.9
X111.5Y-97.6
X111.55Y-91.8
X111.65Y-87.55
X111.75Y-107.35
X112.0Y-91.0
X112.0Y-93.0
X112.0Y-94.0
X112.0Y-104.0
X112.0Y-105.0
X112.0Y-106.0
X112.65Y-89.05
X112.7Y-105.85
X112.75Y-96.2
X113.0Y-93.0
X113.45Y-90.65
X113.5Y-104.25
X113.65Y-94.35
X113.75Y-100.3
X113.8Y-103.05
X113.85Y-101.0
X113.95Y-95.3
X114.05Y-92.75
X114.1Y-97.6
X114.2Y-98.65
X114.8Y-97.15
X114.8Y-99.9
X115.0Y-86.0
X115.0Y-112.0
X116.75Y-107.75
X116.8Y-89.4
X117.0Y-86.0
X117.0Y-88.0
X117.0Y-110.0
X117.0Y-112.0
X117.5Y-93.4
X117.5Y-100.4
X117.55Y-90.5
X117.7Y-105.85
X118.25Y-93.3
X118.25Y-104.4
X118.35Y-100.3
X118.6Y-102.05
X119.0Y-88.0
X119.0Y-90.0
X119.0Y-110.0
X119.0Y-112.0
X120.05Y-91.8
X120.1Y-109.0
X121.0Y-90.0
X121.0Y-94.0
X121.0Y-96.0
X121.0Y-98.0
X121.0Y-100.0
X121.0Y-104.0
X122.25Y-102.05
T2
X84.25Y-111.4
X84.75Y-113.85
X86.6Y-85.7
X87.8Y-108.0
X88.1Y-118.2
X89.85Y-116.9
X90.8Y-117.65
X91.05Y-119.8
X91.6Y-87.5
X91.95Y-92.15
X93.6Y-90.2
X96.75Y-101.75
X97.5Y-100.65
X100.15Y-117.35
X101.0Y-88.8
X102.05Y-100.05
X104.5Y-92.05
X106.15Y-101.75
X112.65Y-96.95
T3
X120.1Y-106.07
X120.1Y-108.07
M30
