%TF.GenerationSoftware,KiCad,Pcbnew,10.0.6*%
%TF.CreationDate,2026-09-30T05:10:11-07:00*%
%TF.ProjectId,totem,746f7465-6d2e-46b6-9963-61645f706362,rev?*%
%TF.SameCoordinates,Original*%
%TF.FileFunction,Profile,NP*%
%FSLAX46Y46*%
G04 Gerber Fmt 4.6, Leading zero omitted, Abs format (unit mm)*
G04 Created by KiCad (PCBNEW 10.0.6) date 2026-09-30 05:10:11*
%MOMM*%
%LPD*%
G01*
G04 APERTURE LIST*
%TA.AperFunction,Profile*%
%ADD10C,0.100000*%
%TD*%
G04 APERTURE END LIST*
D10*
X77327707Y-112223029D02*
X77328087Y-84405732D01*
X77328087Y-84405732D02*
G75*
G02*
X78609720Y-82539257I2000013J-68D01*
G01*
X78609709Y-82539229D02*
X84200430Y-80387509D01*
X78675941Y-113518851D02*
X77327707Y-112223029D01*
X83057137Y-113407456D02*
X78675941Y-113518851D01*
X83057137Y-113407456D02*
G75*
G02*
X84082565Y-114409575I25463J-999644D01*
G01*
X84068200Y-120285670D02*
X84082551Y-114409575D01*
X86832785Y-77861264D02*
X108526021Y-77490771D01*
X86833466Y-79519420D02*
G75*
G02*
X84200365Y-80387541I-1374966J-256880D01*
G01*
X86833466Y-79519420D02*
X86832785Y-77861264D01*
X108526021Y-77490771D02*
X108566920Y-79174950D01*
X111072938Y-79727046D02*
G75*
G02*
X108566910Y-79174948I-1256738J259146D01*
G01*
X111072938Y-79727046D02*
X122417797Y-90170698D01*
X111326337Y-119762270D02*
G75*
G02*
X84068198Y-120285673I-14058897J22123160D01*
G01*
X111397257Y-113853631D02*
X111326337Y-119762270D01*
X111397257Y-113853631D02*
G75*
G02*
X112414522Y-112865837I999843J-11969D01*
G01*
X119057339Y-112980971D02*
X112414523Y-112865784D01*
X122417797Y-90170698D02*
G75*
G02*
X122675732Y-90738694I-541797J-588602D01*
G01*
X122675707Y-90738695D02*
X123080796Y-106477780D01*
X123080796Y-106477780D02*
X119057339Y-112980971D01*
M02*
