%TF.GenerationSoftware,KiCad,Pcbnew,10.0.6*%
%TF.CreationDate,2026-09-30T22:29:47-07:00*%
%TF.ProjectId,totem,746f7465-6d2e-46b6-9963-61645f706362,rev?*%
%TF.SameCoordinates,Original*%
%TF.FileFunction,Drillmap*%
%TF.FilePolarity,Positive*%
%FSLAX45Y45*%
G04 Gerber Fmt 4.5, Leading zero omitted, Abs format (unit mm)*
G04 Created by KiCad (PCBNEW 10.0.6) date 2026-09-30 22:29:47*
%MOMM*%
%LPD*%
G01*
G04 APERTURE LIST*
%ADD10C,0.100000*%
%ADD11C,0.200000*%
G04 APERTURE END LIST*
D10*
X7732771Y-11222303D02*
X7732809Y-8440573D01*
X7732809Y-8440573D02*
G75*
G02*
X7860972Y-8253926I200001J-7D01*
G01*
X7860971Y-8253923D02*
X8420043Y-8038751D01*
X7867594Y-11351885D02*
X7732771Y-11222303D01*
X8305714Y-11340746D02*
X7867594Y-11351885D01*
X8305714Y-11340746D02*
G75*
G02*
X8408257Y-11440957I2546J-99964D01*
G01*
X8406820Y-12028567D02*
X8408255Y-11440957D01*
X8683279Y-7786126D02*
X10852602Y-7749077D01*
X8683347Y-7951942D02*
G75*
G02*
X8420037Y-8038754I-137497J-25688D01*
G01*
X8683347Y-7951942D02*
X8683279Y-7786126D01*
X10852602Y-7749077D02*
X10856692Y-7917495D01*
X11107294Y-7972705D02*
G75*
G02*
X10856691Y-7917495I-125674J25915D01*
G01*
X11107294Y-7972705D02*
X12241780Y-9017070D01*
X11132634Y-11976227D02*
G75*
G02*
X8406820Y-12028567I-1405890J2212316D01*
G01*
X11139726Y-11385363D02*
X11132634Y-11976227D01*
X11139726Y-11385363D02*
G75*
G02*
X11241452Y-11286584I99984J-1197D01*
G01*
X11905734Y-11298097D02*
X11241452Y-11286578D01*
X12241780Y-9017070D02*
G75*
G02*
X12267573Y-9073869I-54180J-58860D01*
G01*
X12267571Y-9073870D02*
X12308080Y-10647778D01*
X12308080Y-10647778D02*
X11905734Y-11298097D01*
D11*
D10*
X7890000Y-10590000D02*
X7910000Y-10610000D01*
X7910000Y-10590000D02*
X7890000Y-10610000D01*
X7890000Y-10790000D02*
X7910000Y-10810000D01*
X7910000Y-10790000D02*
X7890000Y-10810000D01*
X7890000Y-11190000D02*
X7910000Y-11210000D01*
X7910000Y-11190000D02*
X7890000Y-11210000D01*
X7900000Y-9195000D02*
X7920000Y-9215000D01*
X7920000Y-9195000D02*
X7900000Y-9215000D01*
X7910000Y-8925000D02*
X7930000Y-8945000D01*
X7930000Y-8925000D02*
X7910000Y-8945000D01*
X8020000Y-11010000D02*
X8040000Y-11030000D01*
X8040000Y-11010000D02*
X8020000Y-11030000D01*
X8075000Y-9830000D02*
X8095000Y-9850000D01*
X8095000Y-9830000D02*
X8075000Y-9850000D01*
X8105000Y-9930000D02*
X8125000Y-9950000D01*
X8125000Y-9930000D02*
X8105000Y-9950000D01*
X8135000Y-10105000D02*
X8155000Y-10125000D01*
X8155000Y-10105000D02*
X8135000Y-10125000D01*
X8140000Y-8275000D02*
X8160000Y-8295000D01*
X8160000Y-8275000D02*
X8140000Y-8295000D01*
X8145000Y-10200000D02*
X8165000Y-10220000D01*
X8165000Y-10200000D02*
X8145000Y-10220000D01*
X8175000Y-9200000D02*
X8195000Y-9220000D01*
X8195000Y-9200000D02*
X8175000Y-9220000D01*
X8180000Y-9415000D02*
X8200000Y-9435000D01*
X8200000Y-9415000D02*
X8180000Y-9435000D01*
X8200000Y-9760000D02*
X8220000Y-9780000D01*
X8220000Y-9760000D02*
X8200000Y-9780000D01*
X8210000Y-9320000D02*
X8230000Y-9340000D01*
X8230000Y-9320000D02*
X8210000Y-9340000D01*
X8210000Y-9645000D02*
X8230000Y-9665000D01*
X8230000Y-9645000D02*
X8210000Y-9665000D01*
X8215000Y-9545000D02*
X8235000Y-9565000D01*
X8235000Y-9545000D02*
X8215000Y-9565000D01*
X8215000Y-9970000D02*
X8235000Y-9990000D01*
X8235000Y-9970000D02*
X8215000Y-9990000D01*
X8240000Y-9055000D02*
X8260000Y-9075000D01*
X8260000Y-9055000D02*
X8240000Y-9075000D01*
X8265000Y-8965000D02*
X8285000Y-8985000D01*
X8285000Y-8965000D02*
X8265000Y-8985000D01*
X8270000Y-8365000D02*
X8290000Y-8385000D01*
X8290000Y-8365000D02*
X8270000Y-8385000D01*
X8275000Y-10975000D02*
X8295000Y-10995000D01*
X8295000Y-10975000D02*
X8275000Y-10995000D01*
X8290000Y-9390000D02*
X8310000Y-9410000D01*
X8310000Y-9390000D02*
X8290000Y-9410000D01*
X8290000Y-9590000D02*
X8310000Y-9610000D01*
X8310000Y-9590000D02*
X8290000Y-9610000D01*
X8290000Y-9690000D02*
X8310000Y-9710000D01*
X8310000Y-9690000D02*
X8290000Y-9710000D01*
X8290000Y-9790000D02*
X8310000Y-9810000D01*
X8310000Y-9790000D02*
X8290000Y-9810000D01*
X8310000Y-10465000D02*
X8330000Y-10485000D01*
X8330000Y-10465000D02*
X8310000Y-10485000D01*
X8315000Y-9135000D02*
X8335000Y-9155000D01*
X8335000Y-9135000D02*
X8315000Y-9155000D01*
X8320000Y-9500000D02*
X8340000Y-9520000D01*
X8340000Y-9500000D02*
X8320000Y-9520000D01*
X8325000Y-8200000D02*
X8345000Y-8220000D01*
X8345000Y-8200000D02*
X8325000Y-8220000D01*
X8330000Y-8930000D02*
X8350000Y-8950000D01*
X8350000Y-8930000D02*
X8330000Y-8950000D01*
X8345000Y-10615000D02*
X8365000Y-10635000D01*
X8365000Y-10615000D02*
X8345000Y-10635000D01*
X8390000Y-8990000D02*
X8410000Y-9010000D01*
X8410000Y-8990000D02*
X8390000Y-9010000D01*
X8390000Y-9890000D02*
X8410000Y-9910000D01*
X8410000Y-9890000D02*
X8390000Y-9910000D01*
X8405000Y-9995000D02*
X8425000Y-10015000D01*
X8425000Y-9995000D02*
X8405000Y-10015000D01*
X8425000Y-8725000D02*
X8445000Y-8745000D01*
X8445000Y-8725000D02*
X8425000Y-8745000D01*
X8435000Y-8840000D02*
X8455000Y-8860000D01*
X8455000Y-8840000D02*
X8435000Y-8860000D01*
X8450000Y-9730000D02*
X8470000Y-9750000D01*
X8470000Y-9730000D02*
X8450000Y-9750000D01*
X8450000Y-10715000D02*
X8470000Y-10735000D01*
X8470000Y-10715000D02*
X8450000Y-10735000D01*
X8490000Y-9790000D02*
X8510000Y-9810000D01*
X8510000Y-9790000D02*
X8490000Y-9810000D01*
X8490000Y-9890000D02*
X8510000Y-9910000D01*
X8510000Y-9890000D02*
X8490000Y-9910000D01*
X8490000Y-9990000D02*
X8510000Y-10010000D01*
X8510000Y-9990000D02*
X8490000Y-10010000D01*
X8490000Y-10590000D02*
X8510000Y-10610000D01*
X8510000Y-10590000D02*
X8490000Y-10610000D01*
X8490000Y-11590000D02*
X8510000Y-11610000D01*
X8510000Y-11590000D02*
X8490000Y-11610000D01*
X8490000Y-11990000D02*
X8510000Y-12010000D01*
X8510000Y-11990000D02*
X8490000Y-12010000D01*
X8495000Y-9060000D02*
X8515000Y-9080000D01*
X8515000Y-9060000D02*
X8495000Y-9080000D01*
X8505000Y-8660000D02*
X8525000Y-8680000D01*
X8525000Y-8660000D02*
X8505000Y-8680000D01*
X8520000Y-8870000D02*
X8540000Y-8890000D01*
X8540000Y-8870000D02*
X8520000Y-8890000D01*
X8590000Y-8690000D02*
X8610000Y-8710000D01*
X8610000Y-8690000D02*
X8590000Y-8710000D01*
X8590000Y-9690000D02*
X8610000Y-9710000D01*
X8610000Y-9690000D02*
X8590000Y-9710000D01*
X8590000Y-9790000D02*
X8610000Y-9810000D01*
X8610000Y-9790000D02*
X8590000Y-9810000D01*
X8590000Y-9890000D02*
X8610000Y-9910000D01*
X8610000Y-9890000D02*
X8590000Y-9910000D01*
X8590000Y-9990000D02*
X8610000Y-10010000D01*
X8610000Y-9990000D02*
X8590000Y-10010000D01*
X8590000Y-10590000D02*
X8610000Y-10610000D01*
X8610000Y-10590000D02*
X8590000Y-10610000D01*
X8610000Y-10930000D02*
X8630000Y-10950000D01*
X8630000Y-10930000D02*
X8610000Y-10950000D01*
X8630000Y-8150000D02*
X8650000Y-8170000D01*
X8650000Y-8150000D02*
X8630000Y-8170000D01*
X8630000Y-9610000D02*
X8650000Y-9630000D01*
X8650000Y-9610000D02*
X8630000Y-9630000D01*
X8630000Y-10850000D02*
X8650000Y-10870000D01*
X8650000Y-10850000D02*
X8630000Y-10870000D01*
X8645000Y-11730000D02*
X8665000Y-11750000D01*
X8665000Y-11730000D02*
X8645000Y-11750000D01*
X8665000Y-9290000D02*
X8685000Y-9310000D01*
X8685000Y-9290000D02*
X8665000Y-9310000D01*
X8665000Y-9485000D02*
X8685000Y-9505000D01*
X8685000Y-9485000D02*
X8665000Y-9505000D01*
X8665000Y-10265000D02*
X8685000Y-10285000D01*
X8685000Y-10265000D02*
X8665000Y-10285000D01*
X8690000Y-9890000D02*
X8710000Y-9910000D01*
X8710000Y-9890000D02*
X8690000Y-9910000D01*
X8690000Y-9990000D02*
X8710000Y-10010000D01*
X8710000Y-9990000D02*
X8690000Y-10010000D01*
X8690000Y-11990000D02*
X8710000Y-12010000D01*
X8710000Y-11990000D02*
X8690000Y-12010000D01*
X8720000Y-8465000D02*
X8740000Y-8485000D01*
X8740000Y-8465000D02*
X8720000Y-8485000D01*
X8725000Y-8625000D02*
X8745000Y-8645000D01*
X8745000Y-8625000D02*
X8725000Y-8645000D01*
X8740000Y-11035000D02*
X8760000Y-11055000D01*
X8760000Y-11035000D02*
X8740000Y-11055000D01*
X8755000Y-9810000D02*
X8775000Y-9830000D01*
X8775000Y-9810000D02*
X8755000Y-9830000D01*
X8760000Y-10070000D02*
X8780000Y-10090000D01*
X8780000Y-10070000D02*
X8760000Y-10090000D01*
X8765000Y-7970000D02*
X8785000Y-7990000D01*
X8785000Y-7970000D02*
X8765000Y-7990000D01*
X8775000Y-9350000D02*
X8795000Y-9370000D01*
X8795000Y-9350000D02*
X8775000Y-9370000D01*
X8790000Y-9520000D02*
X8810000Y-9540000D01*
X8810000Y-9520000D02*
X8790000Y-9540000D01*
X8790000Y-10420000D02*
X8810000Y-10440000D01*
X8810000Y-10420000D02*
X8790000Y-10440000D01*
X8805000Y-10625000D02*
X8825000Y-10645000D01*
X8825000Y-10625000D02*
X8805000Y-10645000D01*
X8815000Y-11105000D02*
X8835000Y-11125000D01*
X8835000Y-11105000D02*
X8815000Y-11125000D01*
X8825000Y-9740000D02*
X8845000Y-9760000D01*
X8845000Y-9740000D02*
X8825000Y-9760000D01*
X8875000Y-10600000D02*
X8895000Y-10620000D01*
X8895000Y-10600000D02*
X8875000Y-10620000D01*
X8880000Y-9890000D02*
X8900000Y-9910000D01*
X8900000Y-9890000D02*
X8880000Y-9910000D01*
X8900000Y-7870000D02*
X8920000Y-7890000D01*
X8920000Y-7870000D02*
X8900000Y-7890000D01*
X8915000Y-11065000D02*
X8935000Y-11085000D01*
X8935000Y-11065000D02*
X8915000Y-11085000D01*
X8925000Y-11155000D02*
X8945000Y-11175000D01*
X8945000Y-11155000D02*
X8925000Y-11175000D01*
X8955000Y-11875000D02*
X8975000Y-11895000D01*
X8975000Y-11875000D02*
X8955000Y-11895000D01*
X8960000Y-11220000D02*
X8980000Y-11240000D01*
X8980000Y-11220000D02*
X8960000Y-11240000D01*
X8990000Y-9790000D02*
X9010000Y-9810000D01*
X9010000Y-9790000D02*
X8990000Y-9810000D01*
X8990000Y-11090000D02*
X9010000Y-11110000D01*
X9010000Y-11090000D02*
X8990000Y-11110000D01*
X9010000Y-9270000D02*
X9030000Y-9290000D01*
X9030000Y-9270000D02*
X9010000Y-9290000D01*
X9010000Y-9345000D02*
X9030000Y-9365000D01*
X9030000Y-9345000D02*
X9010000Y-9365000D01*
X9015000Y-8265000D02*
X9035000Y-8285000D01*
X9035000Y-8265000D02*
X9015000Y-8285000D01*
X9020000Y-8720000D02*
X9040000Y-8740000D01*
X9040000Y-8720000D02*
X9020000Y-8740000D01*
X9020000Y-8960000D02*
X9040000Y-8980000D01*
X9040000Y-8960000D02*
X9020000Y-8980000D01*
X9035000Y-10035000D02*
X9055000Y-10055000D01*
X9055000Y-10035000D02*
X9035000Y-10055000D01*
X9060000Y-9620000D02*
X9080000Y-9640000D01*
X9080000Y-9620000D02*
X9060000Y-9640000D01*
X9075000Y-9140000D02*
X9095000Y-9160000D01*
X9095000Y-9140000D02*
X9075000Y-9160000D01*
X9085000Y-9845000D02*
X9105000Y-9865000D01*
X9105000Y-9845000D02*
X9085000Y-9865000D01*
X9090000Y-8390000D02*
X9110000Y-8410000D01*
X9110000Y-8390000D02*
X9090000Y-8410000D01*
X9090000Y-8790000D02*
X9110000Y-8810000D01*
X9110000Y-8790000D02*
X9090000Y-8810000D01*
X9090000Y-9390000D02*
X9110000Y-9410000D01*
X9110000Y-9390000D02*
X9090000Y-9410000D01*
X9090000Y-9490000D02*
X9110000Y-9510000D01*
X9110000Y-9490000D02*
X9090000Y-9510000D01*
X9090000Y-11090000D02*
X9110000Y-11110000D01*
X9110000Y-11090000D02*
X9090000Y-11110000D01*
X9090000Y-11190000D02*
X9110000Y-11210000D01*
X9110000Y-11190000D02*
X9090000Y-11210000D01*
X9095000Y-8200000D02*
X9115000Y-8220000D01*
X9115000Y-8200000D02*
X9095000Y-8220000D01*
X9100000Y-8880000D02*
X9120000Y-8900000D01*
X9120000Y-8880000D02*
X9100000Y-8900000D01*
X9100000Y-9255000D02*
X9120000Y-9275000D01*
X9120000Y-9255000D02*
X9100000Y-9275000D01*
X9100000Y-9955000D02*
X9120000Y-9975000D01*
X9120000Y-9955000D02*
X9100000Y-9975000D01*
X9105000Y-11295000D02*
X9125000Y-11315000D01*
X9125000Y-11295000D02*
X9105000Y-11315000D01*
X9130000Y-10325000D02*
X9150000Y-10345000D01*
X9150000Y-10325000D02*
X9130000Y-10345000D01*
X9135000Y-9030000D02*
X9155000Y-9050000D01*
X9155000Y-9030000D02*
X9135000Y-9050000D01*
X9140000Y-10530000D02*
X9160000Y-10550000D01*
X9160000Y-10530000D02*
X9140000Y-10550000D01*
X9145000Y-10395000D02*
X9165000Y-10415000D01*
X9165000Y-10395000D02*
X9145000Y-10415000D01*
X9165000Y-8925000D02*
X9185000Y-8945000D01*
X9185000Y-8925000D02*
X9165000Y-8945000D01*
X9190000Y-8190000D02*
X9210000Y-8210000D01*
X9210000Y-8190000D02*
X9190000Y-8210000D01*
X9190000Y-8390000D02*
X9210000Y-8410000D01*
X9210000Y-8390000D02*
X9190000Y-8410000D01*
X9190000Y-8490000D02*
X9210000Y-8510000D01*
X9210000Y-8490000D02*
X9190000Y-8510000D01*
X9190000Y-10890000D02*
X9210000Y-10910000D01*
X9210000Y-10890000D02*
X9190000Y-10910000D01*
X9190000Y-10990000D02*
X9210000Y-11010000D01*
X9210000Y-10990000D02*
X9190000Y-11010000D01*
X9190000Y-11090000D02*
X9210000Y-11110000D01*
X9210000Y-11090000D02*
X9190000Y-11110000D01*
X9190000Y-11190000D02*
X9210000Y-11210000D01*
X9210000Y-11190000D02*
X9190000Y-11210000D01*
X9190000Y-11290000D02*
X9210000Y-11310000D01*
X9210000Y-11290000D02*
X9190000Y-11310000D01*
X9210000Y-10655000D02*
X9230000Y-10675000D01*
X9230000Y-10655000D02*
X9210000Y-10675000D01*
X9225000Y-10250000D02*
X9245000Y-10270000D01*
X9245000Y-10250000D02*
X9225000Y-10270000D01*
X9225000Y-10425000D02*
X9245000Y-10445000D01*
X9245000Y-10425000D02*
X9225000Y-10445000D01*
X9260000Y-8135000D02*
X9280000Y-8155000D01*
X9280000Y-8135000D02*
X9260000Y-8155000D01*
X9290000Y-8390000D02*
X9310000Y-8410000D01*
X9310000Y-8390000D02*
X9290000Y-8410000D01*
X9290000Y-8490000D02*
X9310000Y-8510000D01*
X9310000Y-8490000D02*
X9290000Y-8510000D01*
X9290000Y-8590000D02*
X9310000Y-8610000D01*
X9310000Y-8590000D02*
X9290000Y-8610000D01*
X9290000Y-10890000D02*
X9310000Y-10910000D01*
X9310000Y-10890000D02*
X9290000Y-10910000D01*
X9290000Y-10990000D02*
X9310000Y-11010000D01*
X9310000Y-10990000D02*
X9290000Y-11010000D01*
X9290000Y-11090000D02*
X9310000Y-11110000D01*
X9310000Y-11090000D02*
X9290000Y-11110000D01*
X9290000Y-11190000D02*
X9310000Y-11210000D01*
X9310000Y-11190000D02*
X9290000Y-11210000D01*
X9290000Y-11360000D02*
X9310000Y-11380000D01*
X9310000Y-11360000D02*
X9290000Y-11380000D01*
X9295000Y-9510000D02*
X9315000Y-9530000D01*
X9315000Y-9510000D02*
X9295000Y-9530000D01*
X9295000Y-10425000D02*
X9315000Y-10445000D01*
X9315000Y-10425000D02*
X9295000Y-10445000D01*
X9320000Y-9885000D02*
X9340000Y-9905000D01*
X9340000Y-9885000D02*
X9320000Y-9905000D01*
X9350000Y-10730000D02*
X9370000Y-10750000D01*
X9370000Y-10730000D02*
X9350000Y-10750000D01*
X9355000Y-12130000D02*
X9375000Y-12150000D01*
X9375000Y-12130000D02*
X9355000Y-12150000D01*
X9375000Y-11380000D02*
X9395000Y-11400000D01*
X9395000Y-11380000D02*
X9375000Y-11400000D01*
X9390000Y-8190000D02*
X9410000Y-8210000D01*
X9410000Y-8190000D02*
X9390000Y-8210000D01*
X9390000Y-8390000D02*
X9410000Y-8410000D01*
X9410000Y-8390000D02*
X9390000Y-8410000D01*
X9390000Y-8490000D02*
X9410000Y-8510000D01*
X9410000Y-8490000D02*
X9390000Y-8510000D01*
X9390000Y-9990000D02*
X9410000Y-10010000D01*
X9410000Y-9990000D02*
X9390000Y-10010000D01*
X9390000Y-10090000D02*
X9410000Y-10110000D01*
X9410000Y-10090000D02*
X9390000Y-10110000D01*
X9390000Y-10190000D02*
X9410000Y-10210000D01*
X9410000Y-10190000D02*
X9390000Y-10210000D01*
X9390000Y-10290000D02*
X9410000Y-10310000D01*
X9410000Y-10290000D02*
X9390000Y-10310000D01*
X9390000Y-10890000D02*
X9410000Y-10910000D01*
X9410000Y-10890000D02*
X9390000Y-10910000D01*
X9390000Y-10990000D02*
X9410000Y-11010000D01*
X9410000Y-10990000D02*
X9390000Y-11010000D01*
X9390000Y-11090000D02*
X9410000Y-11110000D01*
X9410000Y-11090000D02*
X9390000Y-11110000D01*
X9390000Y-11190000D02*
X9410000Y-11210000D01*
X9410000Y-11190000D02*
X9390000Y-11210000D01*
X9405000Y-8750000D02*
X9425000Y-8770000D01*
X9425000Y-8750000D02*
X9405000Y-8770000D01*
X9410000Y-8665000D02*
X9430000Y-8685000D01*
X9430000Y-8665000D02*
X9410000Y-8685000D01*
X9415000Y-9200000D02*
X9435000Y-9220000D01*
X9435000Y-9200000D02*
X9415000Y-9220000D01*
X9425000Y-8095000D02*
X9445000Y-8115000D01*
X9445000Y-8095000D02*
X9425000Y-8115000D01*
X9435000Y-9445000D02*
X9455000Y-9465000D01*
X9455000Y-9445000D02*
X9435000Y-9465000D01*
X9440000Y-11405000D02*
X9460000Y-11425000D01*
X9460000Y-11405000D02*
X9440000Y-11425000D01*
X9490000Y-8190000D02*
X9510000Y-8210000D01*
X9510000Y-8190000D02*
X9490000Y-8210000D01*
X9490000Y-8390000D02*
X9510000Y-8410000D01*
X9510000Y-8390000D02*
X9490000Y-8410000D01*
X9490000Y-8490000D02*
X9510000Y-8510000D01*
X9510000Y-8490000D02*
X9490000Y-8510000D01*
X9490000Y-9190000D02*
X9510000Y-9210000D01*
X9510000Y-9190000D02*
X9490000Y-9210000D01*
X9490000Y-9390000D02*
X9510000Y-9410000D01*
X9510000Y-9390000D02*
X9490000Y-9410000D01*
X9490000Y-10190000D02*
X9510000Y-10210000D01*
X9510000Y-10190000D02*
X9490000Y-10210000D01*
X9490000Y-10290000D02*
X9510000Y-10310000D01*
X9510000Y-10290000D02*
X9490000Y-10310000D01*
X9490000Y-10390000D02*
X9510000Y-10410000D01*
X9510000Y-10390000D02*
X9490000Y-10410000D01*
X9490000Y-10990000D02*
X9510000Y-11010000D01*
X9510000Y-10990000D02*
X9490000Y-11010000D01*
X9490000Y-11090000D02*
X9510000Y-11110000D01*
X9510000Y-11090000D02*
X9490000Y-11110000D01*
X9490000Y-11190000D02*
X9510000Y-11210000D01*
X9510000Y-11190000D02*
X9490000Y-11210000D01*
X9545000Y-9110000D02*
X9565000Y-9130000D01*
X9565000Y-9110000D02*
X9545000Y-9130000D01*
X9570000Y-9385000D02*
X9590000Y-9405000D01*
X9590000Y-9385000D02*
X9570000Y-9405000D01*
X9590000Y-8190000D02*
X9610000Y-8210000D01*
X9610000Y-8190000D02*
X9590000Y-8210000D01*
X9590000Y-8490000D02*
X9610000Y-8510000D01*
X9610000Y-8490000D02*
X9590000Y-8510000D01*
X9590000Y-9190000D02*
X9610000Y-9210000D01*
X9610000Y-9190000D02*
X9590000Y-9210000D01*
X9590000Y-9290000D02*
X9610000Y-9310000D01*
X9610000Y-9290000D02*
X9590000Y-9310000D01*
X9590000Y-9590000D02*
X9610000Y-9610000D01*
X9610000Y-9590000D02*
X9590000Y-9610000D01*
X9590000Y-11090000D02*
X9610000Y-11110000D01*
X9610000Y-11090000D02*
X9590000Y-11110000D01*
X9590000Y-11190000D02*
X9610000Y-11210000D01*
X9610000Y-11190000D02*
X9590000Y-11210000D01*
X9590000Y-11390000D02*
X9610000Y-11410000D01*
X9610000Y-11390000D02*
X9590000Y-11410000D01*
X9600000Y-11935000D02*
X9620000Y-11955000D01*
X9620000Y-11935000D02*
X9600000Y-11955000D01*
X9605000Y-8060000D02*
X9625000Y-8080000D01*
X9625000Y-8060000D02*
X9605000Y-8080000D01*
X9635000Y-10860000D02*
X9655000Y-10880000D01*
X9655000Y-10860000D02*
X9635000Y-10880000D01*
X9645000Y-12135000D02*
X9665000Y-12155000D01*
X9665000Y-12135000D02*
X9645000Y-12155000D01*
X9655000Y-11415000D02*
X9675000Y-11435000D01*
X9675000Y-11415000D02*
X9655000Y-11435000D01*
X9665000Y-9035000D02*
X9685000Y-9055000D01*
X9685000Y-9035000D02*
X9665000Y-9055000D01*
X9690000Y-8090000D02*
X9710000Y-8110000D01*
X9710000Y-8090000D02*
X9690000Y-8110000D01*
X9690000Y-8190000D02*
X9710000Y-8210000D01*
X9710000Y-8190000D02*
X9690000Y-8210000D01*
X9690000Y-8290000D02*
X9710000Y-8310000D01*
X9710000Y-8290000D02*
X9690000Y-8310000D01*
X9690000Y-11190000D02*
X9710000Y-11210000D01*
X9710000Y-11190000D02*
X9690000Y-11210000D01*
X9695000Y-8655000D02*
X9715000Y-8675000D01*
X9715000Y-8655000D02*
X9695000Y-8675000D01*
X9695000Y-8795000D02*
X9715000Y-8815000D01*
X9715000Y-8795000D02*
X9695000Y-8815000D01*
X9710000Y-9980000D02*
X9730000Y-10000000D01*
X9730000Y-9980000D02*
X9710000Y-10000000D01*
X9725000Y-9880000D02*
X9745000Y-9900000D01*
X9745000Y-9880000D02*
X9725000Y-9900000D01*
X9765000Y-10780000D02*
X9785000Y-10800000D01*
X9785000Y-10780000D02*
X9765000Y-10800000D01*
X9770000Y-10515000D02*
X9790000Y-10535000D01*
X9790000Y-10515000D02*
X9770000Y-10535000D01*
X9785000Y-8050000D02*
X9805000Y-8070000D01*
X9805000Y-8050000D02*
X9785000Y-8070000D01*
X9785000Y-9260000D02*
X9805000Y-9280000D01*
X9805000Y-9260000D02*
X9785000Y-9280000D01*
X9785000Y-10120000D02*
X9805000Y-10140000D01*
X9805000Y-10120000D02*
X9785000Y-10140000D01*
X9790000Y-8190000D02*
X9810000Y-8210000D01*
X9810000Y-8190000D02*
X9790000Y-8210000D01*
X9790000Y-8290000D02*
X9810000Y-8310000D01*
X9810000Y-8290000D02*
X9790000Y-8310000D01*
X9790000Y-9090000D02*
X9810000Y-9110000D01*
X9810000Y-9090000D02*
X9790000Y-9110000D01*
X9790000Y-10450000D02*
X9810000Y-10470000D01*
X9810000Y-10450000D02*
X9790000Y-10470000D01*
X9790000Y-10590000D02*
X9810000Y-10610000D01*
X9810000Y-10590000D02*
X9790000Y-10610000D01*
X9790000Y-10690000D02*
X9810000Y-10710000D01*
X9810000Y-10690000D02*
X9790000Y-10710000D01*
X9790000Y-11190000D02*
X9810000Y-11210000D01*
X9810000Y-11190000D02*
X9790000Y-11210000D01*
X9790000Y-11290000D02*
X9810000Y-11310000D01*
X9810000Y-11290000D02*
X9790000Y-11310000D01*
X9800000Y-9010000D02*
X9820000Y-9030000D01*
X9820000Y-9010000D02*
X9800000Y-9030000D01*
X9800000Y-9980000D02*
X9820000Y-10000000D01*
X9820000Y-9980000D02*
X9800000Y-10000000D01*
X9800000Y-10970000D02*
X9820000Y-10990000D01*
X9820000Y-10970000D02*
X9800000Y-10990000D01*
X9835000Y-11690000D02*
X9855000Y-11710000D01*
X9855000Y-11690000D02*
X9835000Y-11710000D01*
X9835000Y-12035000D02*
X9855000Y-12055000D01*
X9855000Y-12035000D02*
X9835000Y-12055000D01*
X9845000Y-8750000D02*
X9865000Y-8770000D01*
X9865000Y-8750000D02*
X9845000Y-8770000D01*
X9855000Y-8680000D02*
X9875000Y-8700000D01*
X9875000Y-8680000D02*
X9855000Y-8700000D01*
X9880000Y-11265000D02*
X9900000Y-11285000D01*
X9900000Y-11265000D02*
X9880000Y-11285000D01*
X9890000Y-8090000D02*
X9910000Y-8110000D01*
X9910000Y-8090000D02*
X9890000Y-8110000D01*
X9890000Y-8190000D02*
X9910000Y-8210000D01*
X9910000Y-8190000D02*
X9890000Y-8210000D01*
X9890000Y-8290000D02*
X9910000Y-8310000D01*
X9910000Y-8290000D02*
X9890000Y-8310000D01*
X9890000Y-8390000D02*
X9910000Y-8410000D01*
X9910000Y-8390000D02*
X9890000Y-8410000D01*
X9890000Y-9390000D02*
X9910000Y-9410000D01*
X9910000Y-9390000D02*
X9890000Y-9410000D01*
X9890000Y-9990000D02*
X9910000Y-10010000D01*
X9910000Y-9990000D02*
X9890000Y-10010000D01*
X9900000Y-11385000D02*
X9920000Y-11405000D01*
X9920000Y-11385000D02*
X9900000Y-11405000D01*
X9905000Y-9920000D02*
X9925000Y-9940000D01*
X9925000Y-9920000D02*
X9905000Y-9940000D01*
X9905000Y-11200000D02*
X9925000Y-11220000D01*
X9925000Y-11200000D02*
X9905000Y-11220000D01*
X9950000Y-9085000D02*
X9970000Y-9105000D01*
X9970000Y-9085000D02*
X9950000Y-9105000D01*
X9955000Y-11055000D02*
X9975000Y-11075000D01*
X9975000Y-11055000D02*
X9955000Y-11075000D01*
X9965000Y-8060000D02*
X9985000Y-8080000D01*
X9985000Y-8060000D02*
X9965000Y-8080000D01*
X9990000Y-8190000D02*
X10010000Y-8210000D01*
X10010000Y-8190000D02*
X9990000Y-8210000D01*
X9990000Y-8290000D02*
X10010000Y-8310000D01*
X10010000Y-8290000D02*
X9990000Y-8310000D01*
X9990000Y-8390000D02*
X10010000Y-8410000D01*
X10010000Y-8390000D02*
X9990000Y-8410000D01*
X9990000Y-8690000D02*
X10010000Y-8710000D01*
X10010000Y-8690000D02*
X9990000Y-8710000D01*
X10015000Y-9340000D02*
X10035000Y-9360000D01*
X10035000Y-9340000D02*
X10015000Y-9360000D01*
X10050000Y-11425000D02*
X10070000Y-11445000D01*
X10070000Y-11425000D02*
X10050000Y-11445000D01*
X10055000Y-11280000D02*
X10075000Y-11300000D01*
X10075000Y-11280000D02*
X10055000Y-11300000D01*
X10065000Y-9280000D02*
X10085000Y-9300000D01*
X10085000Y-9280000D02*
X10065000Y-9300000D01*
X10080000Y-10210000D02*
X10100000Y-10230000D01*
X10100000Y-10210000D02*
X10080000Y-10230000D01*
X10090000Y-8190000D02*
X10110000Y-8210000D01*
X10110000Y-8190000D02*
X10090000Y-8210000D01*
X10090000Y-8290000D02*
X10110000Y-8310000D01*
X10110000Y-8290000D02*
X10090000Y-8310000D01*
X10090000Y-8390000D02*
X10110000Y-8410000D01*
X10110000Y-8390000D02*
X10090000Y-8410000D01*
X10090000Y-10280000D02*
X10110000Y-10300000D01*
X10110000Y-10280000D02*
X10090000Y-10300000D01*
X10095000Y-10470000D02*
X10115000Y-10490000D01*
X10115000Y-10470000D02*
X10095000Y-10490000D01*
X10095000Y-10650000D02*
X10115000Y-10670000D01*
X10115000Y-10650000D02*
X10095000Y-10670000D01*
X10105000Y-11030000D02*
X10125000Y-11050000D01*
X10125000Y-11030000D02*
X10105000Y-11050000D01*
X10115000Y-10945000D02*
X10135000Y-10965000D01*
X10135000Y-10945000D02*
X10115000Y-10965000D01*
X10130000Y-10800000D02*
X10150000Y-10820000D01*
X10150000Y-10800000D02*
X10130000Y-10820000D01*
X10135000Y-9120000D02*
X10155000Y-9140000D01*
X10155000Y-9120000D02*
X10135000Y-9140000D01*
X10140000Y-8085000D02*
X10160000Y-8105000D01*
X10160000Y-8085000D02*
X10140000Y-8105000D01*
X10150000Y-11400000D02*
X10170000Y-11420000D01*
X10170000Y-11400000D02*
X10150000Y-11420000D01*
X10190000Y-8190000D02*
X10210000Y-8210000D01*
X10210000Y-8190000D02*
X10190000Y-8210000D01*
X10190000Y-8290000D02*
X10210000Y-8310000D01*
X10210000Y-8290000D02*
X10190000Y-8310000D01*
X10190000Y-8390000D02*
X10210000Y-8410000D01*
X10210000Y-8390000D02*
X10190000Y-8410000D01*
X10190000Y-8790000D02*
X10210000Y-8810000D01*
X10210000Y-8790000D02*
X10190000Y-8810000D01*
X10190000Y-11290000D02*
X10210000Y-11310000D01*
X10210000Y-11290000D02*
X10190000Y-11310000D01*
X10205000Y-9255000D02*
X10225000Y-9275000D01*
X10225000Y-9255000D02*
X10205000Y-9275000D01*
X10205000Y-11755000D02*
X10225000Y-11775000D01*
X10225000Y-11755000D02*
X10205000Y-11775000D01*
X10240000Y-10805000D02*
X10260000Y-10825000D01*
X10260000Y-10805000D02*
X10240000Y-10825000D01*
X10260000Y-12075000D02*
X10280000Y-12095000D01*
X10280000Y-12075000D02*
X10260000Y-12095000D01*
X10270000Y-9110000D02*
X10290000Y-9130000D01*
X10290000Y-9110000D02*
X10270000Y-9130000D01*
X10290000Y-8130000D02*
X10310000Y-8150000D01*
X10310000Y-8130000D02*
X10290000Y-8150000D01*
X10290000Y-8290000D02*
X10310000Y-8310000D01*
X10310000Y-8290000D02*
X10290000Y-8310000D01*
X10290000Y-8390000D02*
X10310000Y-8410000D01*
X10310000Y-8390000D02*
X10290000Y-8410000D01*
X10290000Y-8890000D02*
X10310000Y-8910000D01*
X10310000Y-8890000D02*
X10290000Y-8910000D01*
X10290000Y-11290000D02*
X10310000Y-11310000D01*
X10310000Y-11290000D02*
X10290000Y-11310000D01*
X10305000Y-10365000D02*
X10325000Y-10385000D01*
X10325000Y-10365000D02*
X10305000Y-10385000D01*
X10305000Y-10825000D02*
X10325000Y-10845000D01*
X10325000Y-10825000D02*
X10305000Y-10845000D01*
X10310000Y-10455000D02*
X10330000Y-10475000D01*
X10330000Y-10455000D02*
X10310000Y-10475000D01*
X10315000Y-11355000D02*
X10335000Y-11375000D01*
X10335000Y-11355000D02*
X10315000Y-11375000D01*
X10320000Y-10155000D02*
X10340000Y-10175000D01*
X10340000Y-10155000D02*
X10320000Y-10175000D01*
X10375000Y-11915000D02*
X10395000Y-11935000D01*
X10395000Y-11915000D02*
X10375000Y-11935000D01*
X10380000Y-9480000D02*
X10400000Y-9500000D01*
X10400000Y-9480000D02*
X10380000Y-9500000D01*
X10390000Y-8190000D02*
X10410000Y-8210000D01*
X10410000Y-8190000D02*
X10390000Y-8210000D01*
X10390000Y-8290000D02*
X10410000Y-8310000D01*
X10410000Y-8290000D02*
X10390000Y-8310000D01*
X10390000Y-11290000D02*
X10410000Y-11310000D01*
X10410000Y-11290000D02*
X10390000Y-11310000D01*
X10400000Y-9000000D02*
X10420000Y-9020000D01*
X10420000Y-9000000D02*
X10400000Y-9020000D01*
X10415000Y-9995000D02*
X10435000Y-10015000D01*
X10435000Y-9995000D02*
X10415000Y-10015000D01*
X10420000Y-12050000D02*
X10440000Y-12070000D01*
X10440000Y-12050000D02*
X10420000Y-12070000D01*
X10430000Y-12120000D02*
X10450000Y-12140000D01*
X10450000Y-12120000D02*
X10430000Y-12140000D01*
X10450000Y-10845000D02*
X10470000Y-10865000D01*
X10470000Y-10845000D02*
X10450000Y-10865000D01*
X10470000Y-9530000D02*
X10490000Y-9550000D01*
X10490000Y-9530000D02*
X10470000Y-9550000D01*
X10475000Y-8195000D02*
X10495000Y-8215000D01*
X10495000Y-8195000D02*
X10475000Y-8215000D01*
X10480000Y-11290000D02*
X10500000Y-11310000D01*
X10500000Y-11290000D02*
X10480000Y-11310000D01*
X10490000Y-8690000D02*
X10510000Y-8710000D01*
X10510000Y-8690000D02*
X10490000Y-8710000D01*
X10490000Y-8790000D02*
X10510000Y-8810000D01*
X10510000Y-8790000D02*
X10490000Y-8810000D01*
X10500000Y-10530000D02*
X10520000Y-10550000D01*
X10520000Y-10530000D02*
X10500000Y-10550000D01*
X10520000Y-11860000D02*
X10540000Y-11880000D01*
X10540000Y-11860000D02*
X10520000Y-11880000D01*
X10525000Y-10355000D02*
X10545000Y-10375000D01*
X10545000Y-10355000D02*
X10525000Y-10375000D01*
X10530000Y-8235000D02*
X10550000Y-8255000D01*
X10550000Y-8235000D02*
X10530000Y-8255000D01*
X10530000Y-9135000D02*
X10550000Y-9155000D01*
X10550000Y-9135000D02*
X10530000Y-9155000D01*
X10540000Y-8325000D02*
X10560000Y-8345000D01*
X10560000Y-8325000D02*
X10540000Y-8345000D01*
X10560000Y-11105000D02*
X10580000Y-11125000D01*
X10580000Y-11105000D02*
X10560000Y-11125000D01*
X10600000Y-10415000D02*
X10620000Y-10435000D01*
X10620000Y-10415000D02*
X10600000Y-10435000D01*
X10605000Y-9980000D02*
X10625000Y-10000000D01*
X10625000Y-9980000D02*
X10605000Y-10000000D01*
X10610000Y-10055000D02*
X10630000Y-10075000D01*
X10630000Y-10055000D02*
X10610000Y-10075000D01*
X10630000Y-10960000D02*
X10650000Y-10980000D01*
X10650000Y-10960000D02*
X10630000Y-10980000D01*
X10645000Y-11845000D02*
X10665000Y-11865000D01*
X10665000Y-11845000D02*
X10645000Y-11865000D01*
X10650000Y-7870000D02*
X10670000Y-7890000D01*
X10670000Y-7870000D02*
X10650000Y-7890000D01*
X10650000Y-10690000D02*
X10670000Y-10710000D01*
X10670000Y-10690000D02*
X10650000Y-10710000D01*
X10650000Y-10860000D02*
X10670000Y-10880000D01*
X10670000Y-10860000D02*
X10650000Y-10880000D01*
X10650000Y-11200000D02*
X10670000Y-11220000D01*
X10670000Y-11200000D02*
X10650000Y-11220000D01*
X10690000Y-10390000D02*
X10710000Y-10410000D01*
X10710000Y-10390000D02*
X10690000Y-10410000D01*
X10760000Y-9675000D02*
X10780000Y-9695000D01*
X10780000Y-9675000D02*
X10760000Y-9695000D01*
X10770000Y-8430000D02*
X10790000Y-8450000D01*
X10790000Y-8430000D02*
X10770000Y-8450000D01*
X10775000Y-9475000D02*
X10795000Y-9495000D01*
X10795000Y-9475000D02*
X10775000Y-9495000D01*
X10790000Y-8590000D02*
X10810000Y-8610000D01*
X10810000Y-8590000D02*
X10790000Y-8610000D01*
X10790000Y-8690000D02*
X10810000Y-8710000D01*
X10810000Y-8690000D02*
X10790000Y-8710000D01*
X10790000Y-8790000D02*
X10810000Y-8810000D01*
X10810000Y-8790000D02*
X10790000Y-8810000D01*
X10790000Y-8890000D02*
X10810000Y-8910000D01*
X10810000Y-8890000D02*
X10790000Y-8910000D01*
X10790000Y-9090000D02*
X10810000Y-9110000D01*
X10810000Y-9090000D02*
X10790000Y-9110000D01*
X10795000Y-11105000D02*
X10815000Y-11125000D01*
X10815000Y-11105000D02*
X10795000Y-11125000D01*
X10810000Y-9270000D02*
X10830000Y-9290000D01*
X10830000Y-9270000D02*
X10810000Y-9290000D01*
X10825000Y-9775000D02*
X10845000Y-9795000D01*
X10845000Y-9775000D02*
X10825000Y-9795000D01*
X10865000Y-10865000D02*
X10885000Y-10885000D01*
X10885000Y-10865000D02*
X10865000Y-10885000D01*
X10890000Y-8590000D02*
X10910000Y-8610000D01*
X10910000Y-8590000D02*
X10890000Y-8610000D01*
X10890000Y-8690000D02*
X10910000Y-8710000D01*
X10910000Y-8690000D02*
X10890000Y-8710000D01*
X10890000Y-8790000D02*
X10910000Y-8810000D01*
X10910000Y-8790000D02*
X10890000Y-8810000D01*
X10890000Y-8890000D02*
X10910000Y-8910000D01*
X10910000Y-8890000D02*
X10890000Y-8910000D01*
X10890000Y-9090000D02*
X10910000Y-9110000D01*
X10910000Y-9090000D02*
X10890000Y-9110000D01*
X10900000Y-8505000D02*
X10920000Y-8525000D01*
X10920000Y-8505000D02*
X10900000Y-8525000D01*
X10915000Y-9330000D02*
X10935000Y-9350000D01*
X10935000Y-9330000D02*
X10915000Y-9350000D01*
X10925000Y-11000000D02*
X10945000Y-11020000D01*
X10945000Y-11000000D02*
X10925000Y-11020000D01*
X10930000Y-10245000D02*
X10950000Y-10265000D01*
X10950000Y-10245000D02*
X10930000Y-10265000D01*
X10935000Y-10410000D02*
X10955000Y-10430000D01*
X10955000Y-10410000D02*
X10935000Y-10430000D01*
X10935000Y-10870000D02*
X10955000Y-10890000D01*
X10955000Y-10870000D02*
X10935000Y-10890000D01*
X10980000Y-11765000D02*
X11000000Y-11785000D01*
X11000000Y-11765000D02*
X10980000Y-11785000D01*
X10990000Y-8690000D02*
X11010000Y-8710000D01*
X11010000Y-8690000D02*
X10990000Y-8710000D01*
X10990000Y-8790000D02*
X11010000Y-8810000D01*
X11010000Y-8790000D02*
X10990000Y-8810000D01*
X10990000Y-8890000D02*
X11010000Y-8910000D01*
X11010000Y-8890000D02*
X10990000Y-8910000D01*
X10990000Y-9090000D02*
X11010000Y-9110000D01*
X11010000Y-9090000D02*
X10990000Y-9110000D01*
X10990000Y-9290000D02*
X11010000Y-9310000D01*
X11010000Y-9290000D02*
X10990000Y-9310000D01*
X10990000Y-9390000D02*
X11010000Y-9410000D01*
X11010000Y-9390000D02*
X10990000Y-9410000D01*
X11025000Y-9480000D02*
X11045000Y-9500000D01*
X11045000Y-9480000D02*
X11025000Y-9500000D01*
X11030000Y-8600000D02*
X11050000Y-8620000D01*
X11050000Y-8600000D02*
X11030000Y-8620000D01*
X11050000Y-10690000D02*
X11070000Y-10710000D01*
X11070000Y-10690000D02*
X11050000Y-10710000D01*
X11060000Y-10860000D02*
X11080000Y-10880000D01*
X11080000Y-10860000D02*
X11060000Y-10880000D01*
X11065000Y-10510000D02*
X11085000Y-10530000D01*
X11085000Y-10510000D02*
X11065000Y-10530000D01*
X11075000Y-9530000D02*
X11095000Y-9550000D01*
X11095000Y-9530000D02*
X11075000Y-9550000D01*
X11075000Y-10610000D02*
X11095000Y-10630000D01*
X11095000Y-10610000D02*
X11075000Y-10630000D01*
X11080000Y-9675000D02*
X11100000Y-9695000D01*
X11100000Y-9675000D02*
X11080000Y-9695000D01*
X11090000Y-8790000D02*
X11110000Y-8810000D01*
X11110000Y-8790000D02*
X11090000Y-8810000D01*
X11090000Y-8890000D02*
X11110000Y-8910000D01*
X11110000Y-8890000D02*
X11090000Y-8910000D01*
X11090000Y-9090000D02*
X11110000Y-9110000D01*
X11110000Y-9090000D02*
X11090000Y-9110000D01*
X11090000Y-9290000D02*
X11110000Y-9310000D01*
X11110000Y-9290000D02*
X11090000Y-9310000D01*
X11090000Y-9390000D02*
X11110000Y-9410000D01*
X11110000Y-9390000D02*
X11090000Y-9410000D01*
X11090000Y-10780000D02*
X11110000Y-10800000D01*
X11110000Y-10780000D02*
X11090000Y-10800000D01*
X11140000Y-9750000D02*
X11160000Y-9770000D01*
X11160000Y-9750000D02*
X11140000Y-9770000D01*
X11145000Y-9170000D02*
X11165000Y-9190000D01*
X11165000Y-9170000D02*
X11145000Y-9190000D01*
X11155000Y-8745000D02*
X11175000Y-8765000D01*
X11175000Y-8745000D02*
X11155000Y-8765000D01*
X11165000Y-10725000D02*
X11185000Y-10745000D01*
X11185000Y-10725000D02*
X11165000Y-10745000D01*
X11190000Y-9090000D02*
X11210000Y-9110000D01*
X11210000Y-9090000D02*
X11190000Y-9110000D01*
X11190000Y-9290000D02*
X11210000Y-9310000D01*
X11210000Y-9290000D02*
X11190000Y-9310000D01*
X11190000Y-9390000D02*
X11210000Y-9410000D01*
X11210000Y-9390000D02*
X11190000Y-9410000D01*
X11190000Y-10390000D02*
X11210000Y-10410000D01*
X11210000Y-10390000D02*
X11190000Y-10410000D01*
X11190000Y-10490000D02*
X11210000Y-10510000D01*
X11210000Y-10490000D02*
X11190000Y-10510000D01*
X11190000Y-10590000D02*
X11210000Y-10610000D01*
X11210000Y-10590000D02*
X11190000Y-10610000D01*
X11255000Y-8895000D02*
X11275000Y-8915000D01*
X11275000Y-8895000D02*
X11255000Y-8915000D01*
X11260000Y-10575000D02*
X11280000Y-10595000D01*
X11280000Y-10575000D02*
X11260000Y-10595000D01*
X11265000Y-9610000D02*
X11285000Y-9630000D01*
X11285000Y-9610000D02*
X11265000Y-9630000D01*
X11290000Y-9290000D02*
X11310000Y-9310000D01*
X11310000Y-9290000D02*
X11290000Y-9310000D01*
X11335000Y-9055000D02*
X11355000Y-9075000D01*
X11355000Y-9055000D02*
X11335000Y-9075000D01*
X11340000Y-10415000D02*
X11360000Y-10435000D01*
X11360000Y-10415000D02*
X11340000Y-10435000D01*
X11355000Y-9425000D02*
X11375000Y-9445000D01*
X11375000Y-9425000D02*
X11355000Y-9445000D01*
X11365000Y-10020000D02*
X11385000Y-10040000D01*
X11385000Y-10020000D02*
X11365000Y-10040000D01*
X11370000Y-10295000D02*
X11390000Y-10315000D01*
X11390000Y-10295000D02*
X11370000Y-10315000D01*
X11375000Y-10090000D02*
X11395000Y-10110000D01*
X11395000Y-10090000D02*
X11375000Y-10110000D01*
X11385000Y-9520000D02*
X11405000Y-9540000D01*
X11405000Y-9520000D02*
X11385000Y-9540000D01*
X11395000Y-9265000D02*
X11415000Y-9285000D01*
X11415000Y-9265000D02*
X11395000Y-9285000D01*
X11400000Y-9750000D02*
X11420000Y-9770000D01*
X11420000Y-9750000D02*
X11400000Y-9770000D01*
X11410000Y-9855000D02*
X11430000Y-9875000D01*
X11430000Y-9855000D02*
X11410000Y-9875000D01*
X11470000Y-9705000D02*
X11490000Y-9725000D01*
X11490000Y-9705000D02*
X11470000Y-9725000D01*
X11470000Y-9980000D02*
X11490000Y-10000000D01*
X11490000Y-9980000D02*
X11470000Y-10000000D01*
X11490000Y-8590000D02*
X11510000Y-8610000D01*
X11510000Y-8590000D02*
X11490000Y-8610000D01*
X11490000Y-11190000D02*
X11510000Y-11210000D01*
X11510000Y-11190000D02*
X11490000Y-11210000D01*
X11665000Y-10765000D02*
X11685000Y-10785000D01*
X11685000Y-10765000D02*
X11665000Y-10785000D01*
X11670000Y-8930000D02*
X11690000Y-8950000D01*
X11690000Y-8930000D02*
X11670000Y-8950000D01*
X11690000Y-8590000D02*
X11710000Y-8610000D01*
X11710000Y-8590000D02*
X11690000Y-8610000D01*
X11690000Y-8790000D02*
X11710000Y-8810000D01*
X11710000Y-8790000D02*
X11690000Y-8810000D01*
X11690000Y-10990000D02*
X11710000Y-11010000D01*
X11710000Y-10990000D02*
X11690000Y-11010000D01*
X11690000Y-11190000D02*
X11710000Y-11210000D01*
X11710000Y-11190000D02*
X11690000Y-11210000D01*
X11740000Y-9330000D02*
X11760000Y-9350000D01*
X11760000Y-9330000D02*
X11740000Y-9350000D01*
X11740000Y-10030000D02*
X11760000Y-10050000D01*
X11760000Y-10030000D02*
X11740000Y-10050000D01*
X11745000Y-9040000D02*
X11765000Y-9060000D01*
X11765000Y-9040000D02*
X11745000Y-9060000D01*
X11760000Y-10575000D02*
X11780000Y-10595000D01*
X11780000Y-10575000D02*
X11760000Y-10595000D01*
X11815000Y-9320000D02*
X11835000Y-9340000D01*
X11835000Y-9320000D02*
X11815000Y-9340000D01*
X11815000Y-10430000D02*
X11835000Y-10450000D01*
X11835000Y-10430000D02*
X11815000Y-10450000D01*
X11825000Y-10020000D02*
X11845000Y-10040000D01*
X11845000Y-10020000D02*
X11825000Y-10040000D01*
X11850000Y-10195000D02*
X11870000Y-10215000D01*
X11870000Y-10195000D02*
X11850000Y-10215000D01*
X11890000Y-8790000D02*
X11910000Y-8810000D01*
X11910000Y-8790000D02*
X11890000Y-8810000D01*
X11890000Y-8990000D02*
X11910000Y-9010000D01*
X11910000Y-8990000D02*
X11890000Y-9010000D01*
X11890000Y-10990000D02*
X11910000Y-11010000D01*
X11910000Y-10990000D02*
X11890000Y-11010000D01*
X11890000Y-11190000D02*
X11910000Y-11210000D01*
X11910000Y-11190000D02*
X11890000Y-11210000D01*
X11995000Y-9170000D02*
X12015000Y-9190000D01*
X12015000Y-9170000D02*
X11995000Y-9190000D01*
X12000000Y-10890000D02*
X12020000Y-10910000D01*
X12020000Y-10890000D02*
X12000000Y-10910000D01*
X12090000Y-8990000D02*
X12110000Y-9010000D01*
X12110000Y-8990000D02*
X12090000Y-9010000D01*
X12090000Y-9390000D02*
X12110000Y-9410000D01*
X12110000Y-9390000D02*
X12090000Y-9410000D01*
X12090000Y-9590000D02*
X12110000Y-9610000D01*
X12110000Y-9590000D02*
X12090000Y-9610000D01*
X12090000Y-9790000D02*
X12110000Y-9810000D01*
X12110000Y-9790000D02*
X12090000Y-9810000D01*
X12090000Y-9990000D02*
X12110000Y-10010000D01*
X12110000Y-9990000D02*
X12090000Y-10010000D01*
X12090000Y-10390000D02*
X12110000Y-10410000D01*
X12110000Y-10390000D02*
X12090000Y-10410000D01*
X12215000Y-10195000D02*
X12235000Y-10215000D01*
X12235000Y-10195000D02*
X12215000Y-10215000D01*
X8440000Y-11140000D02*
G75*
G02*
X8410000Y-11140000I-15000J0D01*
G01*
X8410000Y-11140000D02*
G75*
G02*
X8440000Y-11140000I15000J0D01*
G01*
X8490000Y-11385000D02*
G75*
G02*
X8460000Y-11385000I-15000J0D01*
G01*
X8460000Y-11385000D02*
G75*
G02*
X8490000Y-11385000I15000J0D01*
G01*
X8675000Y-8570000D02*
G75*
G02*
X8645000Y-8570000I-15000J0D01*
G01*
X8645000Y-8570000D02*
G75*
G02*
X8675000Y-8570000I15000J0D01*
G01*
X8795000Y-10800000D02*
G75*
G02*
X8765000Y-10800000I-15000J0D01*
G01*
X8765000Y-10800000D02*
G75*
G02*
X8795000Y-10800000I15000J0D01*
G01*
X8825000Y-11820000D02*
G75*
G02*
X8795000Y-11820000I-15000J0D01*
G01*
X8795000Y-11820000D02*
G75*
G02*
X8825000Y-11820000I15000J0D01*
G01*
X9000000Y-11690000D02*
G75*
G02*
X8970000Y-11690000I-15000J0D01*
G01*
X8970000Y-11690000D02*
G75*
G02*
X9000000Y-11690000I15000J0D01*
G01*
X9095000Y-11765000D02*
G75*
G02*
X9065000Y-11765000I-15000J0D01*
G01*
X9065000Y-11765000D02*
G75*
G02*
X9095000Y-11765000I15000J0D01*
G01*
X9120000Y-11980000D02*
G75*
G02*
X9090000Y-11980000I-15000J0D01*
G01*
X9090000Y-11980000D02*
G75*
G02*
X9120000Y-11980000I15000J0D01*
G01*
X9175000Y-8750000D02*
G75*
G02*
X9145000Y-8750000I-15000J0D01*
G01*
X9145000Y-8750000D02*
G75*
G02*
X9175000Y-8750000I15000J0D01*
G01*
X9210000Y-9215000D02*
G75*
G02*
X9180000Y-9215000I-15000J0D01*
G01*
X9180000Y-9215000D02*
G75*
G02*
X9210000Y-9215000I15000J0D01*
G01*
X9375000Y-9020000D02*
G75*
G02*
X9345000Y-9020000I-15000J0D01*
G01*
X9345000Y-9020000D02*
G75*
G02*
X9375000Y-9020000I15000J0D01*
G01*
X9690000Y-10175000D02*
G75*
G02*
X9660000Y-10175000I-15000J0D01*
G01*
X9660000Y-10175000D02*
G75*
G02*
X9690000Y-10175000I15000J0D01*
G01*
X9765000Y-10065000D02*
G75*
G02*
X9735000Y-10065000I-15000J0D01*
G01*
X9735000Y-10065000D02*
G75*
G02*
X9765000Y-10065000I15000J0D01*
G01*
X10030000Y-11735000D02*
G75*
G02*
X10000000Y-11735000I-15000J0D01*
G01*
X10000000Y-11735000D02*
G75*
G02*
X10030000Y-11735000I15000J0D01*
G01*
X10115000Y-8880000D02*
G75*
G02*
X10085000Y-8880000I-15000J0D01*
G01*
X10085000Y-8880000D02*
G75*
G02*
X10115000Y-8880000I15000J0D01*
G01*
X10220000Y-10005000D02*
G75*
G02*
X10190000Y-10005000I-15000J0D01*
G01*
X10190000Y-10005000D02*
G75*
G02*
X10220000Y-10005000I15000J0D01*
G01*
X10465000Y-9205000D02*
G75*
G02*
X10435000Y-9205000I-15000J0D01*
G01*
X10435000Y-9205000D02*
G75*
G02*
X10465000Y-9205000I15000J0D01*
G01*
X10630000Y-10175000D02*
G75*
G02*
X10600000Y-10175000I-15000J0D01*
G01*
X10600000Y-10175000D02*
G75*
G02*
X10630000Y-10175000I15000J0D01*
G01*
X11280000Y-9695000D02*
G75*
G02*
X11250000Y-9695000I-15000J0D01*
G01*
X11250000Y-9695000D02*
G75*
G02*
X11280000Y-9695000I15000J0D01*
G01*
X12010000Y-10569500D02*
X12010000Y-10644500D01*
X11972500Y-10607000D02*
X12047500Y-10607000D01*
X12010000Y-10769500D02*
X12010000Y-10844500D01*
X11972500Y-10807000D02*
X12047500Y-10807000D01*
D11*
X7988547Y-12701629D02*
X7988547Y-12501629D01*
X7988547Y-12501629D02*
X8036166Y-12501629D01*
X8036166Y-12501629D02*
X8064738Y-12511153D01*
X8064738Y-12511153D02*
X8083786Y-12530200D01*
X8083786Y-12530200D02*
X8093309Y-12549248D01*
X8093309Y-12549248D02*
X8102833Y-12587343D01*
X8102833Y-12587343D02*
X8102833Y-12615914D01*
X8102833Y-12615914D02*
X8093309Y-12654010D01*
X8093309Y-12654010D02*
X8083786Y-12673057D01*
X8083786Y-12673057D02*
X8064738Y-12692105D01*
X8064738Y-12692105D02*
X8036166Y-12701629D01*
X8036166Y-12701629D02*
X7988547Y-12701629D01*
X8188547Y-12701629D02*
X8188547Y-12568295D01*
X8188547Y-12606391D02*
X8198071Y-12587343D01*
X8198071Y-12587343D02*
X8207595Y-12577819D01*
X8207595Y-12577819D02*
X8226643Y-12568295D01*
X8226643Y-12568295D02*
X8245690Y-12568295D01*
X8312357Y-12701629D02*
X8312357Y-12568295D01*
X8312357Y-12501629D02*
X8302833Y-12511153D01*
X8302833Y-12511153D02*
X8312357Y-12520676D01*
X8312357Y-12520676D02*
X8321881Y-12511153D01*
X8321881Y-12511153D02*
X8312357Y-12501629D01*
X8312357Y-12501629D02*
X8312357Y-12520676D01*
X8436167Y-12701629D02*
X8417119Y-12692105D01*
X8417119Y-12692105D02*
X8407595Y-12673057D01*
X8407595Y-12673057D02*
X8407595Y-12501629D01*
X8540928Y-12701629D02*
X8521881Y-12692105D01*
X8521881Y-12692105D02*
X8512357Y-12673057D01*
X8512357Y-12673057D02*
X8512357Y-12501629D01*
X8769500Y-12701629D02*
X8769500Y-12501629D01*
X8769500Y-12501629D02*
X8836167Y-12644486D01*
X8836167Y-12644486D02*
X8902833Y-12501629D01*
X8902833Y-12501629D02*
X8902833Y-12701629D01*
X9083786Y-12701629D02*
X9083786Y-12596867D01*
X9083786Y-12596867D02*
X9074262Y-12577819D01*
X9074262Y-12577819D02*
X9055214Y-12568295D01*
X9055214Y-12568295D02*
X9017119Y-12568295D01*
X9017119Y-12568295D02*
X8998071Y-12577819D01*
X9083786Y-12692105D02*
X9064738Y-12701629D01*
X9064738Y-12701629D02*
X9017119Y-12701629D01*
X9017119Y-12701629D02*
X8998071Y-12692105D01*
X8998071Y-12692105D02*
X8988548Y-12673057D01*
X8988548Y-12673057D02*
X8988548Y-12654010D01*
X8988548Y-12654010D02*
X8998071Y-12634962D01*
X8998071Y-12634962D02*
X9017119Y-12625438D01*
X9017119Y-12625438D02*
X9064738Y-12625438D01*
X9064738Y-12625438D02*
X9083786Y-12615914D01*
X9179024Y-12568295D02*
X9179024Y-12768295D01*
X9179024Y-12577819D02*
X9198071Y-12568295D01*
X9198071Y-12568295D02*
X9236167Y-12568295D01*
X9236167Y-12568295D02*
X9255214Y-12577819D01*
X9255214Y-12577819D02*
X9264738Y-12587343D01*
X9264738Y-12587343D02*
X9274262Y-12606391D01*
X9274262Y-12606391D02*
X9274262Y-12663533D01*
X9274262Y-12663533D02*
X9264738Y-12682581D01*
X9264738Y-12682581D02*
X9255214Y-12692105D01*
X9255214Y-12692105D02*
X9236167Y-12701629D01*
X9236167Y-12701629D02*
X9198071Y-12701629D01*
X9198071Y-12701629D02*
X9179024Y-12692105D01*
X9359976Y-12682581D02*
X9369500Y-12692105D01*
X9369500Y-12692105D02*
X9359976Y-12701629D01*
X9359976Y-12701629D02*
X9350452Y-12692105D01*
X9350452Y-12692105D02*
X9359976Y-12682581D01*
X9359976Y-12682581D02*
X9359976Y-12701629D01*
X9359976Y-12577819D02*
X9369500Y-12587343D01*
X9369500Y-12587343D02*
X9359976Y-12596867D01*
X9359976Y-12596867D02*
X9350452Y-12587343D01*
X9350452Y-12587343D02*
X9359976Y-12577819D01*
X9359976Y-12577819D02*
X9359976Y-12596867D01*
D10*
X7707771Y-13020145D02*
X7727771Y-13040145D01*
X7727771Y-13020145D02*
X7707771Y-13040145D01*
D11*
X8026643Y-12921629D02*
X8045690Y-12921629D01*
X8045690Y-12921629D02*
X8064738Y-12931153D01*
X8064738Y-12931153D02*
X8074262Y-12940676D01*
X8074262Y-12940676D02*
X8083786Y-12959724D01*
X8083786Y-12959724D02*
X8093309Y-12997819D01*
X8093309Y-12997819D02*
X8093309Y-13045438D01*
X8093309Y-13045438D02*
X8083786Y-13083533D01*
X8083786Y-13083533D02*
X8074262Y-13102581D01*
X8074262Y-13102581D02*
X8064738Y-13112105D01*
X8064738Y-13112105D02*
X8045690Y-13121629D01*
X8045690Y-13121629D02*
X8026643Y-13121629D01*
X8026643Y-13121629D02*
X8007595Y-13112105D01*
X8007595Y-13112105D02*
X7998071Y-13102581D01*
X7998071Y-13102581D02*
X7988547Y-13083533D01*
X7988547Y-13083533D02*
X7979024Y-13045438D01*
X7979024Y-13045438D02*
X7979024Y-12997819D01*
X7979024Y-12997819D02*
X7988547Y-12959724D01*
X7988547Y-12959724D02*
X7998071Y-12940676D01*
X7998071Y-12940676D02*
X8007595Y-12931153D01*
X8007595Y-12931153D02*
X8026643Y-12921629D01*
X8179024Y-13102581D02*
X8188547Y-13112105D01*
X8188547Y-13112105D02*
X8179024Y-13121629D01*
X8179024Y-13121629D02*
X8169500Y-13112105D01*
X8169500Y-13112105D02*
X8179024Y-13102581D01*
X8179024Y-13102581D02*
X8179024Y-13121629D01*
X8264738Y-12940676D02*
X8274262Y-12931153D01*
X8274262Y-12931153D02*
X8293309Y-12921629D01*
X8293309Y-12921629D02*
X8340928Y-12921629D01*
X8340928Y-12921629D02*
X8359976Y-12931153D01*
X8359976Y-12931153D02*
X8369500Y-12940676D01*
X8369500Y-12940676D02*
X8379024Y-12959724D01*
X8379024Y-12959724D02*
X8379024Y-12978772D01*
X8379024Y-12978772D02*
X8369500Y-13007343D01*
X8369500Y-13007343D02*
X8255214Y-13121629D01*
X8255214Y-13121629D02*
X8379024Y-13121629D01*
X8502833Y-12921629D02*
X8521881Y-12921629D01*
X8521881Y-12921629D02*
X8540929Y-12931153D01*
X8540929Y-12931153D02*
X8550452Y-12940676D01*
X8550452Y-12940676D02*
X8559976Y-12959724D01*
X8559976Y-12959724D02*
X8569500Y-12997819D01*
X8569500Y-12997819D02*
X8569500Y-13045438D01*
X8569500Y-13045438D02*
X8559976Y-13083533D01*
X8559976Y-13083533D02*
X8550452Y-13102581D01*
X8550452Y-13102581D02*
X8540929Y-13112105D01*
X8540929Y-13112105D02*
X8521881Y-13121629D01*
X8521881Y-13121629D02*
X8502833Y-13121629D01*
X8502833Y-13121629D02*
X8483786Y-13112105D01*
X8483786Y-13112105D02*
X8474262Y-13102581D01*
X8474262Y-13102581D02*
X8464738Y-13083533D01*
X8464738Y-13083533D02*
X8455214Y-13045438D01*
X8455214Y-13045438D02*
X8455214Y-12997819D01*
X8455214Y-12997819D02*
X8464738Y-12959724D01*
X8464738Y-12959724D02*
X8474262Y-12940676D01*
X8474262Y-12940676D02*
X8483786Y-12931153D01*
X8483786Y-12931153D02*
X8502833Y-12921629D01*
X8693309Y-12921629D02*
X8712357Y-12921629D01*
X8712357Y-12921629D02*
X8731405Y-12931153D01*
X8731405Y-12931153D02*
X8740929Y-12940676D01*
X8740929Y-12940676D02*
X8750452Y-12959724D01*
X8750452Y-12959724D02*
X8759976Y-12997819D01*
X8759976Y-12997819D02*
X8759976Y-13045438D01*
X8759976Y-13045438D02*
X8750452Y-13083533D01*
X8750452Y-13083533D02*
X8740929Y-13102581D01*
X8740929Y-13102581D02*
X8731405Y-13112105D01*
X8731405Y-13112105D02*
X8712357Y-13121629D01*
X8712357Y-13121629D02*
X8693309Y-13121629D01*
X8693309Y-13121629D02*
X8674262Y-13112105D01*
X8674262Y-13112105D02*
X8664738Y-13102581D01*
X8664738Y-13102581D02*
X8655214Y-13083533D01*
X8655214Y-13083533D02*
X8645690Y-13045438D01*
X8645690Y-13045438D02*
X8645690Y-12997819D01*
X8645690Y-12997819D02*
X8655214Y-12959724D01*
X8655214Y-12959724D02*
X8664738Y-12940676D01*
X8664738Y-12940676D02*
X8674262Y-12931153D01*
X8674262Y-12931153D02*
X8693309Y-12921629D01*
X8845690Y-13121629D02*
X8845690Y-12988295D01*
X8845690Y-13007343D02*
X8855214Y-12997819D01*
X8855214Y-12997819D02*
X8874262Y-12988295D01*
X8874262Y-12988295D02*
X8902833Y-12988295D01*
X8902833Y-12988295D02*
X8921881Y-12997819D01*
X8921881Y-12997819D02*
X8931405Y-13016867D01*
X8931405Y-13016867D02*
X8931405Y-13121629D01*
X8931405Y-13016867D02*
X8940929Y-12997819D01*
X8940929Y-12997819D02*
X8959976Y-12988295D01*
X8959976Y-12988295D02*
X8988548Y-12988295D01*
X8988548Y-12988295D02*
X9007595Y-12997819D01*
X9007595Y-12997819D02*
X9017119Y-13016867D01*
X9017119Y-13016867D02*
X9017119Y-13121629D01*
X9112357Y-13121629D02*
X9112357Y-12988295D01*
X9112357Y-13007343D02*
X9121881Y-12997819D01*
X9121881Y-12997819D02*
X9140929Y-12988295D01*
X9140929Y-12988295D02*
X9169500Y-12988295D01*
X9169500Y-12988295D02*
X9188548Y-12997819D01*
X9188548Y-12997819D02*
X9198071Y-13016867D01*
X9198071Y-13016867D02*
X9198071Y-13121629D01*
X9198071Y-13016867D02*
X9207595Y-12997819D01*
X9207595Y-12997819D02*
X9226643Y-12988295D01*
X9226643Y-12988295D02*
X9255214Y-12988295D01*
X9255214Y-12988295D02*
X9274262Y-12997819D01*
X9274262Y-12997819D02*
X9283786Y-13016867D01*
X9283786Y-13016867D02*
X9283786Y-13121629D01*
X9674262Y-12912105D02*
X9502833Y-13169248D01*
X9931405Y-12921629D02*
X9950453Y-12921629D01*
X9950453Y-12921629D02*
X9969500Y-12931153D01*
X9969500Y-12931153D02*
X9979024Y-12940676D01*
X9979024Y-12940676D02*
X9988548Y-12959724D01*
X9988548Y-12959724D02*
X9998072Y-12997819D01*
X9998072Y-12997819D02*
X9998072Y-13045438D01*
X9998072Y-13045438D02*
X9988548Y-13083533D01*
X9988548Y-13083533D02*
X9979024Y-13102581D01*
X9979024Y-13102581D02*
X9969500Y-13112105D01*
X9969500Y-13112105D02*
X9950453Y-13121629D01*
X9950453Y-13121629D02*
X9931405Y-13121629D01*
X9931405Y-13121629D02*
X9912357Y-13112105D01*
X9912357Y-13112105D02*
X9902833Y-13102581D01*
X9902833Y-13102581D02*
X9893310Y-13083533D01*
X9893310Y-13083533D02*
X9883786Y-13045438D01*
X9883786Y-13045438D02*
X9883786Y-12997819D01*
X9883786Y-12997819D02*
X9893310Y-12959724D01*
X9893310Y-12959724D02*
X9902833Y-12940676D01*
X9902833Y-12940676D02*
X9912357Y-12931153D01*
X9912357Y-12931153D02*
X9931405Y-12921629D01*
X10083786Y-13102581D02*
X10093310Y-13112105D01*
X10093310Y-13112105D02*
X10083786Y-13121629D01*
X10083786Y-13121629D02*
X10074262Y-13112105D01*
X10074262Y-13112105D02*
X10083786Y-13102581D01*
X10083786Y-13102581D02*
X10083786Y-13121629D01*
X10217119Y-12921629D02*
X10236167Y-12921629D01*
X10236167Y-12921629D02*
X10255214Y-12931153D01*
X10255214Y-12931153D02*
X10264738Y-12940676D01*
X10264738Y-12940676D02*
X10274262Y-12959724D01*
X10274262Y-12959724D02*
X10283786Y-12997819D01*
X10283786Y-12997819D02*
X10283786Y-13045438D01*
X10283786Y-13045438D02*
X10274262Y-13083533D01*
X10274262Y-13083533D02*
X10264738Y-13102581D01*
X10264738Y-13102581D02*
X10255214Y-13112105D01*
X10255214Y-13112105D02*
X10236167Y-13121629D01*
X10236167Y-13121629D02*
X10217119Y-13121629D01*
X10217119Y-13121629D02*
X10198072Y-13112105D01*
X10198072Y-13112105D02*
X10188548Y-13102581D01*
X10188548Y-13102581D02*
X10179024Y-13083533D01*
X10179024Y-13083533D02*
X10169500Y-13045438D01*
X10169500Y-13045438D02*
X10169500Y-12997819D01*
X10169500Y-12997819D02*
X10179024Y-12959724D01*
X10179024Y-12959724D02*
X10188548Y-12940676D01*
X10188548Y-12940676D02*
X10198072Y-12931153D01*
X10198072Y-12931153D02*
X10217119Y-12921629D01*
X10407595Y-12921629D02*
X10426643Y-12921629D01*
X10426643Y-12921629D02*
X10445691Y-12931153D01*
X10445691Y-12931153D02*
X10455214Y-12940676D01*
X10455214Y-12940676D02*
X10464738Y-12959724D01*
X10464738Y-12959724D02*
X10474262Y-12997819D01*
X10474262Y-12997819D02*
X10474262Y-13045438D01*
X10474262Y-13045438D02*
X10464738Y-13083533D01*
X10464738Y-13083533D02*
X10455214Y-13102581D01*
X10455214Y-13102581D02*
X10445691Y-13112105D01*
X10445691Y-13112105D02*
X10426643Y-13121629D01*
X10426643Y-13121629D02*
X10407595Y-13121629D01*
X10407595Y-13121629D02*
X10388548Y-13112105D01*
X10388548Y-13112105D02*
X10379024Y-13102581D01*
X10379024Y-13102581D02*
X10369500Y-13083533D01*
X10369500Y-13083533D02*
X10359976Y-13045438D01*
X10359976Y-13045438D02*
X10359976Y-12997819D01*
X10359976Y-12997819D02*
X10369500Y-12959724D01*
X10369500Y-12959724D02*
X10379024Y-12940676D01*
X10379024Y-12940676D02*
X10388548Y-12931153D01*
X10388548Y-12931153D02*
X10407595Y-12921629D01*
X10540929Y-12921629D02*
X10674262Y-12921629D01*
X10674262Y-12921629D02*
X10588548Y-13121629D01*
X10759976Y-13121629D02*
X10798072Y-13121629D01*
X10798072Y-13121629D02*
X10817119Y-13112105D01*
X10817119Y-13112105D02*
X10826643Y-13102581D01*
X10826643Y-13102581D02*
X10845691Y-13074010D01*
X10845691Y-13074010D02*
X10855214Y-13035914D01*
X10855214Y-13035914D02*
X10855214Y-12959724D01*
X10855214Y-12959724D02*
X10845691Y-12940676D01*
X10845691Y-12940676D02*
X10836167Y-12931153D01*
X10836167Y-12931153D02*
X10817119Y-12921629D01*
X10817119Y-12921629D02*
X10779024Y-12921629D01*
X10779024Y-12921629D02*
X10759976Y-12931153D01*
X10759976Y-12931153D02*
X10750453Y-12940676D01*
X10750453Y-12940676D02*
X10740929Y-12959724D01*
X10740929Y-12959724D02*
X10740929Y-13007343D01*
X10740929Y-13007343D02*
X10750453Y-13026391D01*
X10750453Y-13026391D02*
X10759976Y-13035914D01*
X10759976Y-13035914D02*
X10779024Y-13045438D01*
X10779024Y-13045438D02*
X10817119Y-13045438D01*
X10817119Y-13045438D02*
X10836167Y-13035914D01*
X10836167Y-13035914D02*
X10845691Y-13026391D01*
X10845691Y-13026391D02*
X10855214Y-13007343D01*
X10931405Y-12921629D02*
X10931405Y-12959724D01*
X11007595Y-12921629D02*
X11007595Y-12959724D01*
X11302834Y-13197819D02*
X11293310Y-13188295D01*
X11293310Y-13188295D02*
X11274262Y-13159724D01*
X11274262Y-13159724D02*
X11264738Y-13140676D01*
X11264738Y-13140676D02*
X11255214Y-13112105D01*
X11255214Y-13112105D02*
X11245691Y-13064486D01*
X11245691Y-13064486D02*
X11245691Y-13026391D01*
X11245691Y-13026391D02*
X11255214Y-12978772D01*
X11255214Y-12978772D02*
X11264738Y-12950200D01*
X11264738Y-12950200D02*
X11274262Y-12931153D01*
X11274262Y-12931153D02*
X11293310Y-12902581D01*
X11293310Y-12902581D02*
X11302834Y-12893057D01*
X11359976Y-12921629D02*
X11483786Y-12921629D01*
X11483786Y-12921629D02*
X11417119Y-12997819D01*
X11417119Y-12997819D02*
X11445691Y-12997819D01*
X11445691Y-12997819D02*
X11464738Y-13007343D01*
X11464738Y-13007343D02*
X11474262Y-13016867D01*
X11474262Y-13016867D02*
X11483786Y-13035914D01*
X11483786Y-13035914D02*
X11483786Y-13083533D01*
X11483786Y-13083533D02*
X11474262Y-13102581D01*
X11474262Y-13102581D02*
X11464738Y-13112105D01*
X11464738Y-13112105D02*
X11445691Y-13121629D01*
X11445691Y-13121629D02*
X11388548Y-13121629D01*
X11388548Y-13121629D02*
X11369500Y-13112105D01*
X11369500Y-13112105D02*
X11359976Y-13102581D01*
X11579024Y-13121629D02*
X11617119Y-13121629D01*
X11617119Y-13121629D02*
X11636167Y-13112105D01*
X11636167Y-13112105D02*
X11645691Y-13102581D01*
X11645691Y-13102581D02*
X11664738Y-13074010D01*
X11664738Y-13074010D02*
X11674262Y-13035914D01*
X11674262Y-13035914D02*
X11674262Y-12959724D01*
X11674262Y-12959724D02*
X11664738Y-12940676D01*
X11664738Y-12940676D02*
X11655214Y-12931153D01*
X11655214Y-12931153D02*
X11636167Y-12921629D01*
X11636167Y-12921629D02*
X11598072Y-12921629D01*
X11598072Y-12921629D02*
X11579024Y-12931153D01*
X11579024Y-12931153D02*
X11569500Y-12940676D01*
X11569500Y-12940676D02*
X11559976Y-12959724D01*
X11559976Y-12959724D02*
X11559976Y-13007343D01*
X11559976Y-13007343D02*
X11569500Y-13026391D01*
X11569500Y-13026391D02*
X11579024Y-13035914D01*
X11579024Y-13035914D02*
X11598072Y-13045438D01*
X11598072Y-13045438D02*
X11636167Y-13045438D01*
X11636167Y-13045438D02*
X11655214Y-13035914D01*
X11655214Y-13035914D02*
X11664738Y-13026391D01*
X11664738Y-13026391D02*
X11674262Y-13007343D01*
X11845691Y-12988295D02*
X11845691Y-13121629D01*
X11798072Y-12912105D02*
X11750453Y-13054962D01*
X11750453Y-13054962D02*
X11874262Y-13054962D01*
X12102834Y-13121629D02*
X12102834Y-12921629D01*
X12188548Y-13121629D02*
X12188548Y-13016867D01*
X12188548Y-13016867D02*
X12179024Y-12997819D01*
X12179024Y-12997819D02*
X12159976Y-12988295D01*
X12159976Y-12988295D02*
X12131405Y-12988295D01*
X12131405Y-12988295D02*
X12112357Y-12997819D01*
X12112357Y-12997819D02*
X12102834Y-13007343D01*
X12312357Y-13121629D02*
X12293310Y-13112105D01*
X12293310Y-13112105D02*
X12283786Y-13102581D01*
X12283786Y-13102581D02*
X12274262Y-13083533D01*
X12274262Y-13083533D02*
X12274262Y-13026391D01*
X12274262Y-13026391D02*
X12283786Y-13007343D01*
X12283786Y-13007343D02*
X12293310Y-12997819D01*
X12293310Y-12997819D02*
X12312357Y-12988295D01*
X12312357Y-12988295D02*
X12340929Y-12988295D01*
X12340929Y-12988295D02*
X12359976Y-12997819D01*
X12359976Y-12997819D02*
X12369500Y-13007343D01*
X12369500Y-13007343D02*
X12379024Y-13026391D01*
X12379024Y-13026391D02*
X12379024Y-13083533D01*
X12379024Y-13083533D02*
X12369500Y-13102581D01*
X12369500Y-13102581D02*
X12359976Y-13112105D01*
X12359976Y-13112105D02*
X12340929Y-13121629D01*
X12340929Y-13121629D02*
X12312357Y-13121629D01*
X12493310Y-13121629D02*
X12474262Y-13112105D01*
X12474262Y-13112105D02*
X12464738Y-13093057D01*
X12464738Y-13093057D02*
X12464738Y-12921629D01*
X12645691Y-13112105D02*
X12626643Y-13121629D01*
X12626643Y-13121629D02*
X12588548Y-13121629D01*
X12588548Y-13121629D02*
X12569500Y-13112105D01*
X12569500Y-13112105D02*
X12559976Y-13093057D01*
X12559976Y-13093057D02*
X12559976Y-13016867D01*
X12559976Y-13016867D02*
X12569500Y-12997819D01*
X12569500Y-12997819D02*
X12588548Y-12988295D01*
X12588548Y-12988295D02*
X12626643Y-12988295D01*
X12626643Y-12988295D02*
X12645691Y-12997819D01*
X12645691Y-12997819D02*
X12655215Y-13016867D01*
X12655215Y-13016867D02*
X12655215Y-13035914D01*
X12655215Y-13035914D02*
X12559976Y-13054962D01*
X12731405Y-13112105D02*
X12750453Y-13121629D01*
X12750453Y-13121629D02*
X12788548Y-13121629D01*
X12788548Y-13121629D02*
X12807596Y-13112105D01*
X12807596Y-13112105D02*
X12817119Y-13093057D01*
X12817119Y-13093057D02*
X12817119Y-13083533D01*
X12817119Y-13083533D02*
X12807596Y-13064486D01*
X12807596Y-13064486D02*
X12788548Y-13054962D01*
X12788548Y-13054962D02*
X12759976Y-13054962D01*
X12759976Y-13054962D02*
X12740929Y-13045438D01*
X12740929Y-13045438D02*
X12731405Y-13026391D01*
X12731405Y-13026391D02*
X12731405Y-13016867D01*
X12731405Y-13016867D02*
X12740929Y-12997819D01*
X12740929Y-12997819D02*
X12759976Y-12988295D01*
X12759976Y-12988295D02*
X12788548Y-12988295D01*
X12788548Y-12988295D02*
X12807596Y-12997819D01*
X12883786Y-13197819D02*
X12893310Y-13188295D01*
X12893310Y-13188295D02*
X12912357Y-13159724D01*
X12912357Y-13159724D02*
X12921881Y-13140676D01*
X12921881Y-13140676D02*
X12931405Y-13112105D01*
X12931405Y-13112105D02*
X12940929Y-13064486D01*
X12940929Y-13064486D02*
X12940929Y-13026391D01*
X12940929Y-13026391D02*
X12931405Y-12978772D01*
X12931405Y-12978772D02*
X12921881Y-12950200D01*
X12921881Y-12950200D02*
X12912357Y-12931153D01*
X12912357Y-12931153D02*
X12893310Y-12902581D01*
X12893310Y-12902581D02*
X12883786Y-12893057D01*
D10*
X7727771Y-13294145D02*
G75*
G02*
X7697771Y-13294145I-15000J0D01*
G01*
X7697771Y-13294145D02*
G75*
G02*
X7727771Y-13294145I15000J0D01*
G01*
D11*
X8026643Y-13185629D02*
X8045690Y-13185629D01*
X8045690Y-13185629D02*
X8064738Y-13195153D01*
X8064738Y-13195153D02*
X8074262Y-13204676D01*
X8074262Y-13204676D02*
X8083786Y-13223724D01*
X8083786Y-13223724D02*
X8093309Y-13261819D01*
X8093309Y-13261819D02*
X8093309Y-13309438D01*
X8093309Y-13309438D02*
X8083786Y-13347533D01*
X8083786Y-13347533D02*
X8074262Y-13366581D01*
X8074262Y-13366581D02*
X8064738Y-13376105D01*
X8064738Y-13376105D02*
X8045690Y-13385629D01*
X8045690Y-13385629D02*
X8026643Y-13385629D01*
X8026643Y-13385629D02*
X8007595Y-13376105D01*
X8007595Y-13376105D02*
X7998071Y-13366581D01*
X7998071Y-13366581D02*
X7988547Y-13347533D01*
X7988547Y-13347533D02*
X7979024Y-13309438D01*
X7979024Y-13309438D02*
X7979024Y-13261819D01*
X7979024Y-13261819D02*
X7988547Y-13223724D01*
X7988547Y-13223724D02*
X7998071Y-13204676D01*
X7998071Y-13204676D02*
X8007595Y-13195153D01*
X8007595Y-13195153D02*
X8026643Y-13185629D01*
X8179024Y-13366581D02*
X8188547Y-13376105D01*
X8188547Y-13376105D02*
X8179024Y-13385629D01*
X8179024Y-13385629D02*
X8169500Y-13376105D01*
X8169500Y-13376105D02*
X8179024Y-13366581D01*
X8179024Y-13366581D02*
X8179024Y-13385629D01*
X8255214Y-13185629D02*
X8379024Y-13185629D01*
X8379024Y-13185629D02*
X8312357Y-13261819D01*
X8312357Y-13261819D02*
X8340928Y-13261819D01*
X8340928Y-13261819D02*
X8359976Y-13271343D01*
X8359976Y-13271343D02*
X8369500Y-13280867D01*
X8369500Y-13280867D02*
X8379024Y-13299914D01*
X8379024Y-13299914D02*
X8379024Y-13347533D01*
X8379024Y-13347533D02*
X8369500Y-13366581D01*
X8369500Y-13366581D02*
X8359976Y-13376105D01*
X8359976Y-13376105D02*
X8340928Y-13385629D01*
X8340928Y-13385629D02*
X8283786Y-13385629D01*
X8283786Y-13385629D02*
X8264738Y-13376105D01*
X8264738Y-13376105D02*
X8255214Y-13366581D01*
X8502833Y-13185629D02*
X8521881Y-13185629D01*
X8521881Y-13185629D02*
X8540929Y-13195153D01*
X8540929Y-13195153D02*
X8550452Y-13204676D01*
X8550452Y-13204676D02*
X8559976Y-13223724D01*
X8559976Y-13223724D02*
X8569500Y-13261819D01*
X8569500Y-13261819D02*
X8569500Y-13309438D01*
X8569500Y-13309438D02*
X8559976Y-13347533D01*
X8559976Y-13347533D02*
X8550452Y-13366581D01*
X8550452Y-13366581D02*
X8540929Y-13376105D01*
X8540929Y-13376105D02*
X8521881Y-13385629D01*
X8521881Y-13385629D02*
X8502833Y-13385629D01*
X8502833Y-13385629D02*
X8483786Y-13376105D01*
X8483786Y-13376105D02*
X8474262Y-13366581D01*
X8474262Y-13366581D02*
X8464738Y-13347533D01*
X8464738Y-13347533D02*
X8455214Y-13309438D01*
X8455214Y-13309438D02*
X8455214Y-13261819D01*
X8455214Y-13261819D02*
X8464738Y-13223724D01*
X8464738Y-13223724D02*
X8474262Y-13204676D01*
X8474262Y-13204676D02*
X8483786Y-13195153D01*
X8483786Y-13195153D02*
X8502833Y-13185629D01*
X8693309Y-13185629D02*
X8712357Y-13185629D01*
X8712357Y-13185629D02*
X8731405Y-13195153D01*
X8731405Y-13195153D02*
X8740929Y-13204676D01*
X8740929Y-13204676D02*
X8750452Y-13223724D01*
X8750452Y-13223724D02*
X8759976Y-13261819D01*
X8759976Y-13261819D02*
X8759976Y-13309438D01*
X8759976Y-13309438D02*
X8750452Y-13347533D01*
X8750452Y-13347533D02*
X8740929Y-13366581D01*
X8740929Y-13366581D02*
X8731405Y-13376105D01*
X8731405Y-13376105D02*
X8712357Y-13385629D01*
X8712357Y-13385629D02*
X8693309Y-13385629D01*
X8693309Y-13385629D02*
X8674262Y-13376105D01*
X8674262Y-13376105D02*
X8664738Y-13366581D01*
X8664738Y-13366581D02*
X8655214Y-13347533D01*
X8655214Y-13347533D02*
X8645690Y-13309438D01*
X8645690Y-13309438D02*
X8645690Y-13261819D01*
X8645690Y-13261819D02*
X8655214Y-13223724D01*
X8655214Y-13223724D02*
X8664738Y-13204676D01*
X8664738Y-13204676D02*
X8674262Y-13195153D01*
X8674262Y-13195153D02*
X8693309Y-13185629D01*
X8845690Y-13385629D02*
X8845690Y-13252295D01*
X8845690Y-13271343D02*
X8855214Y-13261819D01*
X8855214Y-13261819D02*
X8874262Y-13252295D01*
X8874262Y-13252295D02*
X8902833Y-13252295D01*
X8902833Y-13252295D02*
X8921881Y-13261819D01*
X8921881Y-13261819D02*
X8931405Y-13280867D01*
X8931405Y-13280867D02*
X8931405Y-13385629D01*
X8931405Y-13280867D02*
X8940929Y-13261819D01*
X8940929Y-13261819D02*
X8959976Y-13252295D01*
X8959976Y-13252295D02*
X8988548Y-13252295D01*
X8988548Y-13252295D02*
X9007595Y-13261819D01*
X9007595Y-13261819D02*
X9017119Y-13280867D01*
X9017119Y-13280867D02*
X9017119Y-13385629D01*
X9112357Y-13385629D02*
X9112357Y-13252295D01*
X9112357Y-13271343D02*
X9121881Y-13261819D01*
X9121881Y-13261819D02*
X9140929Y-13252295D01*
X9140929Y-13252295D02*
X9169500Y-13252295D01*
X9169500Y-13252295D02*
X9188548Y-13261819D01*
X9188548Y-13261819D02*
X9198071Y-13280867D01*
X9198071Y-13280867D02*
X9198071Y-13385629D01*
X9198071Y-13280867D02*
X9207595Y-13261819D01*
X9207595Y-13261819D02*
X9226643Y-13252295D01*
X9226643Y-13252295D02*
X9255214Y-13252295D01*
X9255214Y-13252295D02*
X9274262Y-13261819D01*
X9274262Y-13261819D02*
X9283786Y-13280867D01*
X9283786Y-13280867D02*
X9283786Y-13385629D01*
X9674262Y-13176105D02*
X9502833Y-13433248D01*
X9931405Y-13185629D02*
X9950453Y-13185629D01*
X9950453Y-13185629D02*
X9969500Y-13195153D01*
X9969500Y-13195153D02*
X9979024Y-13204676D01*
X9979024Y-13204676D02*
X9988548Y-13223724D01*
X9988548Y-13223724D02*
X9998072Y-13261819D01*
X9998072Y-13261819D02*
X9998072Y-13309438D01*
X9998072Y-13309438D02*
X9988548Y-13347533D01*
X9988548Y-13347533D02*
X9979024Y-13366581D01*
X9979024Y-13366581D02*
X9969500Y-13376105D01*
X9969500Y-13376105D02*
X9950453Y-13385629D01*
X9950453Y-13385629D02*
X9931405Y-13385629D01*
X9931405Y-13385629D02*
X9912357Y-13376105D01*
X9912357Y-13376105D02*
X9902833Y-13366581D01*
X9902833Y-13366581D02*
X9893310Y-13347533D01*
X9893310Y-13347533D02*
X9883786Y-13309438D01*
X9883786Y-13309438D02*
X9883786Y-13261819D01*
X9883786Y-13261819D02*
X9893310Y-13223724D01*
X9893310Y-13223724D02*
X9902833Y-13204676D01*
X9902833Y-13204676D02*
X9912357Y-13195153D01*
X9912357Y-13195153D02*
X9931405Y-13185629D01*
X10083786Y-13366581D02*
X10093310Y-13376105D01*
X10093310Y-13376105D02*
X10083786Y-13385629D01*
X10083786Y-13385629D02*
X10074262Y-13376105D01*
X10074262Y-13376105D02*
X10083786Y-13366581D01*
X10083786Y-13366581D02*
X10083786Y-13385629D01*
X10217119Y-13185629D02*
X10236167Y-13185629D01*
X10236167Y-13185629D02*
X10255214Y-13195153D01*
X10255214Y-13195153D02*
X10264738Y-13204676D01*
X10264738Y-13204676D02*
X10274262Y-13223724D01*
X10274262Y-13223724D02*
X10283786Y-13261819D01*
X10283786Y-13261819D02*
X10283786Y-13309438D01*
X10283786Y-13309438D02*
X10274262Y-13347533D01*
X10274262Y-13347533D02*
X10264738Y-13366581D01*
X10264738Y-13366581D02*
X10255214Y-13376105D01*
X10255214Y-13376105D02*
X10236167Y-13385629D01*
X10236167Y-13385629D02*
X10217119Y-13385629D01*
X10217119Y-13385629D02*
X10198072Y-13376105D01*
X10198072Y-13376105D02*
X10188548Y-13366581D01*
X10188548Y-13366581D02*
X10179024Y-13347533D01*
X10179024Y-13347533D02*
X10169500Y-13309438D01*
X10169500Y-13309438D02*
X10169500Y-13261819D01*
X10169500Y-13261819D02*
X10179024Y-13223724D01*
X10179024Y-13223724D02*
X10188548Y-13204676D01*
X10188548Y-13204676D02*
X10198072Y-13195153D01*
X10198072Y-13195153D02*
X10217119Y-13185629D01*
X10474262Y-13385629D02*
X10359976Y-13385629D01*
X10417119Y-13385629D02*
X10417119Y-13185629D01*
X10417119Y-13185629D02*
X10398072Y-13214200D01*
X10398072Y-13214200D02*
X10379024Y-13233248D01*
X10379024Y-13233248D02*
X10359976Y-13242772D01*
X10664738Y-13385629D02*
X10550453Y-13385629D01*
X10607595Y-13385629D02*
X10607595Y-13185629D01*
X10607595Y-13185629D02*
X10588548Y-13214200D01*
X10588548Y-13214200D02*
X10569500Y-13233248D01*
X10569500Y-13233248D02*
X10550453Y-13242772D01*
X10779024Y-13271343D02*
X10759976Y-13261819D01*
X10759976Y-13261819D02*
X10750453Y-13252295D01*
X10750453Y-13252295D02*
X10740929Y-13233248D01*
X10740929Y-13233248D02*
X10740929Y-13223724D01*
X10740929Y-13223724D02*
X10750453Y-13204676D01*
X10750453Y-13204676D02*
X10759976Y-13195153D01*
X10759976Y-13195153D02*
X10779024Y-13185629D01*
X10779024Y-13185629D02*
X10817119Y-13185629D01*
X10817119Y-13185629D02*
X10836167Y-13195153D01*
X10836167Y-13195153D02*
X10845691Y-13204676D01*
X10845691Y-13204676D02*
X10855214Y-13223724D01*
X10855214Y-13223724D02*
X10855214Y-13233248D01*
X10855214Y-13233248D02*
X10845691Y-13252295D01*
X10845691Y-13252295D02*
X10836167Y-13261819D01*
X10836167Y-13261819D02*
X10817119Y-13271343D01*
X10817119Y-13271343D02*
X10779024Y-13271343D01*
X10779024Y-13271343D02*
X10759976Y-13280867D01*
X10759976Y-13280867D02*
X10750453Y-13290391D01*
X10750453Y-13290391D02*
X10740929Y-13309438D01*
X10740929Y-13309438D02*
X10740929Y-13347533D01*
X10740929Y-13347533D02*
X10750453Y-13366581D01*
X10750453Y-13366581D02*
X10759976Y-13376105D01*
X10759976Y-13376105D02*
X10779024Y-13385629D01*
X10779024Y-13385629D02*
X10817119Y-13385629D01*
X10817119Y-13385629D02*
X10836167Y-13376105D01*
X10836167Y-13376105D02*
X10845691Y-13366581D01*
X10845691Y-13366581D02*
X10855214Y-13347533D01*
X10855214Y-13347533D02*
X10855214Y-13309438D01*
X10855214Y-13309438D02*
X10845691Y-13290391D01*
X10845691Y-13290391D02*
X10836167Y-13280867D01*
X10836167Y-13280867D02*
X10817119Y-13271343D01*
X10931405Y-13185629D02*
X10931405Y-13223724D01*
X11007595Y-13185629D02*
X11007595Y-13223724D01*
X11302834Y-13461819D02*
X11293310Y-13452295D01*
X11293310Y-13452295D02*
X11274262Y-13423724D01*
X11274262Y-13423724D02*
X11264738Y-13404676D01*
X11264738Y-13404676D02*
X11255214Y-13376105D01*
X11255214Y-13376105D02*
X11245691Y-13328486D01*
X11245691Y-13328486D02*
X11245691Y-13290391D01*
X11245691Y-13290391D02*
X11255214Y-13242772D01*
X11255214Y-13242772D02*
X11264738Y-13214200D01*
X11264738Y-13214200D02*
X11274262Y-13195153D01*
X11274262Y-13195153D02*
X11293310Y-13166581D01*
X11293310Y-13166581D02*
X11302834Y-13157057D01*
X11483786Y-13385629D02*
X11369500Y-13385629D01*
X11426643Y-13385629D02*
X11426643Y-13185629D01*
X11426643Y-13185629D02*
X11407595Y-13214200D01*
X11407595Y-13214200D02*
X11388548Y-13233248D01*
X11388548Y-13233248D02*
X11369500Y-13242772D01*
X11579024Y-13385629D02*
X11617119Y-13385629D01*
X11617119Y-13385629D02*
X11636167Y-13376105D01*
X11636167Y-13376105D02*
X11645691Y-13366581D01*
X11645691Y-13366581D02*
X11664738Y-13338010D01*
X11664738Y-13338010D02*
X11674262Y-13299914D01*
X11674262Y-13299914D02*
X11674262Y-13223724D01*
X11674262Y-13223724D02*
X11664738Y-13204676D01*
X11664738Y-13204676D02*
X11655214Y-13195153D01*
X11655214Y-13195153D02*
X11636167Y-13185629D01*
X11636167Y-13185629D02*
X11598072Y-13185629D01*
X11598072Y-13185629D02*
X11579024Y-13195153D01*
X11579024Y-13195153D02*
X11569500Y-13204676D01*
X11569500Y-13204676D02*
X11559976Y-13223724D01*
X11559976Y-13223724D02*
X11559976Y-13271343D01*
X11559976Y-13271343D02*
X11569500Y-13290391D01*
X11569500Y-13290391D02*
X11579024Y-13299914D01*
X11579024Y-13299914D02*
X11598072Y-13309438D01*
X11598072Y-13309438D02*
X11636167Y-13309438D01*
X11636167Y-13309438D02*
X11655214Y-13299914D01*
X11655214Y-13299914D02*
X11664738Y-13290391D01*
X11664738Y-13290391D02*
X11674262Y-13271343D01*
X11912357Y-13385629D02*
X11912357Y-13185629D01*
X11998072Y-13385629D02*
X11998072Y-13280867D01*
X11998072Y-13280867D02*
X11988548Y-13261819D01*
X11988548Y-13261819D02*
X11969500Y-13252295D01*
X11969500Y-13252295D02*
X11940929Y-13252295D01*
X11940929Y-13252295D02*
X11921881Y-13261819D01*
X11921881Y-13261819D02*
X11912357Y-13271343D01*
X12121881Y-13385629D02*
X12102834Y-13376105D01*
X12102834Y-13376105D02*
X12093310Y-13366581D01*
X12093310Y-13366581D02*
X12083786Y-13347533D01*
X12083786Y-13347533D02*
X12083786Y-13290391D01*
X12083786Y-13290391D02*
X12093310Y-13271343D01*
X12093310Y-13271343D02*
X12102834Y-13261819D01*
X12102834Y-13261819D02*
X12121881Y-13252295D01*
X12121881Y-13252295D02*
X12150453Y-13252295D01*
X12150453Y-13252295D02*
X12169500Y-13261819D01*
X12169500Y-13261819D02*
X12179024Y-13271343D01*
X12179024Y-13271343D02*
X12188548Y-13290391D01*
X12188548Y-13290391D02*
X12188548Y-13347533D01*
X12188548Y-13347533D02*
X12179024Y-13366581D01*
X12179024Y-13366581D02*
X12169500Y-13376105D01*
X12169500Y-13376105D02*
X12150453Y-13385629D01*
X12150453Y-13385629D02*
X12121881Y-13385629D01*
X12302834Y-13385629D02*
X12283786Y-13376105D01*
X12283786Y-13376105D02*
X12274262Y-13357057D01*
X12274262Y-13357057D02*
X12274262Y-13185629D01*
X12455215Y-13376105D02*
X12436167Y-13385629D01*
X12436167Y-13385629D02*
X12398072Y-13385629D01*
X12398072Y-13385629D02*
X12379024Y-13376105D01*
X12379024Y-13376105D02*
X12369500Y-13357057D01*
X12369500Y-13357057D02*
X12369500Y-13280867D01*
X12369500Y-13280867D02*
X12379024Y-13261819D01*
X12379024Y-13261819D02*
X12398072Y-13252295D01*
X12398072Y-13252295D02*
X12436167Y-13252295D01*
X12436167Y-13252295D02*
X12455215Y-13261819D01*
X12455215Y-13261819D02*
X12464738Y-13280867D01*
X12464738Y-13280867D02*
X12464738Y-13299914D01*
X12464738Y-13299914D02*
X12369500Y-13318962D01*
X12540929Y-13376105D02*
X12559976Y-13385629D01*
X12559976Y-13385629D02*
X12598072Y-13385629D01*
X12598072Y-13385629D02*
X12617119Y-13376105D01*
X12617119Y-13376105D02*
X12626643Y-13357057D01*
X12626643Y-13357057D02*
X12626643Y-13347533D01*
X12626643Y-13347533D02*
X12617119Y-13328486D01*
X12617119Y-13328486D02*
X12598072Y-13318962D01*
X12598072Y-13318962D02*
X12569500Y-13318962D01*
X12569500Y-13318962D02*
X12550453Y-13309438D01*
X12550453Y-13309438D02*
X12540929Y-13290391D01*
X12540929Y-13290391D02*
X12540929Y-13280867D01*
X12540929Y-13280867D02*
X12550453Y-13261819D01*
X12550453Y-13261819D02*
X12569500Y-13252295D01*
X12569500Y-13252295D02*
X12598072Y-13252295D01*
X12598072Y-13252295D02*
X12617119Y-13261819D01*
X12693310Y-13461819D02*
X12702834Y-13452295D01*
X12702834Y-13452295D02*
X12721881Y-13423724D01*
X12721881Y-13423724D02*
X12731405Y-13404676D01*
X12731405Y-13404676D02*
X12740929Y-13376105D01*
X12740929Y-13376105D02*
X12750453Y-13328486D01*
X12750453Y-13328486D02*
X12750453Y-13290391D01*
X12750453Y-13290391D02*
X12740929Y-13242772D01*
X12740929Y-13242772D02*
X12731405Y-13214200D01*
X12731405Y-13214200D02*
X12721881Y-13195153D01*
X12721881Y-13195153D02*
X12702834Y-13166581D01*
X12702834Y-13166581D02*
X12693310Y-13157057D01*
D10*
X7690271Y-13520645D02*
X7690271Y-13595645D01*
X7652771Y-13558145D02*
X7727771Y-13558145D01*
D11*
X8026643Y-13449629D02*
X8045690Y-13449629D01*
X8045690Y-13449629D02*
X8064738Y-13459153D01*
X8064738Y-13459153D02*
X8074262Y-13468676D01*
X8074262Y-13468676D02*
X8083786Y-13487724D01*
X8083786Y-13487724D02*
X8093309Y-13525819D01*
X8093309Y-13525819D02*
X8093309Y-13573438D01*
X8093309Y-13573438D02*
X8083786Y-13611533D01*
X8083786Y-13611533D02*
X8074262Y-13630581D01*
X8074262Y-13630581D02*
X8064738Y-13640105D01*
X8064738Y-13640105D02*
X8045690Y-13649629D01*
X8045690Y-13649629D02*
X8026643Y-13649629D01*
X8026643Y-13649629D02*
X8007595Y-13640105D01*
X8007595Y-13640105D02*
X7998071Y-13630581D01*
X7998071Y-13630581D02*
X7988547Y-13611533D01*
X7988547Y-13611533D02*
X7979024Y-13573438D01*
X7979024Y-13573438D02*
X7979024Y-13525819D01*
X7979024Y-13525819D02*
X7988547Y-13487724D01*
X7988547Y-13487724D02*
X7998071Y-13468676D01*
X7998071Y-13468676D02*
X8007595Y-13459153D01*
X8007595Y-13459153D02*
X8026643Y-13449629D01*
X8179024Y-13630581D02*
X8188547Y-13640105D01*
X8188547Y-13640105D02*
X8179024Y-13649629D01*
X8179024Y-13649629D02*
X8169500Y-13640105D01*
X8169500Y-13640105D02*
X8179024Y-13630581D01*
X8179024Y-13630581D02*
X8179024Y-13649629D01*
X8255214Y-13449629D02*
X8388547Y-13449629D01*
X8388547Y-13449629D02*
X8302833Y-13649629D01*
X8559976Y-13449629D02*
X8464738Y-13449629D01*
X8464738Y-13449629D02*
X8455214Y-13544867D01*
X8455214Y-13544867D02*
X8464738Y-13535343D01*
X8464738Y-13535343D02*
X8483786Y-13525819D01*
X8483786Y-13525819D02*
X8531405Y-13525819D01*
X8531405Y-13525819D02*
X8550452Y-13535343D01*
X8550452Y-13535343D02*
X8559976Y-13544867D01*
X8559976Y-13544867D02*
X8569500Y-13563914D01*
X8569500Y-13563914D02*
X8569500Y-13611533D01*
X8569500Y-13611533D02*
X8559976Y-13630581D01*
X8559976Y-13630581D02*
X8550452Y-13640105D01*
X8550452Y-13640105D02*
X8531405Y-13649629D01*
X8531405Y-13649629D02*
X8483786Y-13649629D01*
X8483786Y-13649629D02*
X8464738Y-13640105D01*
X8464738Y-13640105D02*
X8455214Y-13630581D01*
X8693309Y-13449629D02*
X8712357Y-13449629D01*
X8712357Y-13449629D02*
X8731405Y-13459153D01*
X8731405Y-13459153D02*
X8740929Y-13468676D01*
X8740929Y-13468676D02*
X8750452Y-13487724D01*
X8750452Y-13487724D02*
X8759976Y-13525819D01*
X8759976Y-13525819D02*
X8759976Y-13573438D01*
X8759976Y-13573438D02*
X8750452Y-13611533D01*
X8750452Y-13611533D02*
X8740929Y-13630581D01*
X8740929Y-13630581D02*
X8731405Y-13640105D01*
X8731405Y-13640105D02*
X8712357Y-13649629D01*
X8712357Y-13649629D02*
X8693309Y-13649629D01*
X8693309Y-13649629D02*
X8674262Y-13640105D01*
X8674262Y-13640105D02*
X8664738Y-13630581D01*
X8664738Y-13630581D02*
X8655214Y-13611533D01*
X8655214Y-13611533D02*
X8645690Y-13573438D01*
X8645690Y-13573438D02*
X8645690Y-13525819D01*
X8645690Y-13525819D02*
X8655214Y-13487724D01*
X8655214Y-13487724D02*
X8664738Y-13468676D01*
X8664738Y-13468676D02*
X8674262Y-13459153D01*
X8674262Y-13459153D02*
X8693309Y-13449629D01*
X8845690Y-13649629D02*
X8845690Y-13516295D01*
X8845690Y-13535343D02*
X8855214Y-13525819D01*
X8855214Y-13525819D02*
X8874262Y-13516295D01*
X8874262Y-13516295D02*
X8902833Y-13516295D01*
X8902833Y-13516295D02*
X8921881Y-13525819D01*
X8921881Y-13525819D02*
X8931405Y-13544867D01*
X8931405Y-13544867D02*
X8931405Y-13649629D01*
X8931405Y-13544867D02*
X8940929Y-13525819D01*
X8940929Y-13525819D02*
X8959976Y-13516295D01*
X8959976Y-13516295D02*
X8988548Y-13516295D01*
X8988548Y-13516295D02*
X9007595Y-13525819D01*
X9007595Y-13525819D02*
X9017119Y-13544867D01*
X9017119Y-13544867D02*
X9017119Y-13649629D01*
X9112357Y-13649629D02*
X9112357Y-13516295D01*
X9112357Y-13535343D02*
X9121881Y-13525819D01*
X9121881Y-13525819D02*
X9140929Y-13516295D01*
X9140929Y-13516295D02*
X9169500Y-13516295D01*
X9169500Y-13516295D02*
X9188548Y-13525819D01*
X9188548Y-13525819D02*
X9198071Y-13544867D01*
X9198071Y-13544867D02*
X9198071Y-13649629D01*
X9198071Y-13544867D02*
X9207595Y-13525819D01*
X9207595Y-13525819D02*
X9226643Y-13516295D01*
X9226643Y-13516295D02*
X9255214Y-13516295D01*
X9255214Y-13516295D02*
X9274262Y-13525819D01*
X9274262Y-13525819D02*
X9283786Y-13544867D01*
X9283786Y-13544867D02*
X9283786Y-13649629D01*
X9674262Y-13440105D02*
X9502833Y-13697248D01*
X9931405Y-13449629D02*
X9950453Y-13449629D01*
X9950453Y-13449629D02*
X9969500Y-13459153D01*
X9969500Y-13459153D02*
X9979024Y-13468676D01*
X9979024Y-13468676D02*
X9988548Y-13487724D01*
X9988548Y-13487724D02*
X9998072Y-13525819D01*
X9998072Y-13525819D02*
X9998072Y-13573438D01*
X9998072Y-13573438D02*
X9988548Y-13611533D01*
X9988548Y-13611533D02*
X9979024Y-13630581D01*
X9979024Y-13630581D02*
X9969500Y-13640105D01*
X9969500Y-13640105D02*
X9950453Y-13649629D01*
X9950453Y-13649629D02*
X9931405Y-13649629D01*
X9931405Y-13649629D02*
X9912357Y-13640105D01*
X9912357Y-13640105D02*
X9902833Y-13630581D01*
X9902833Y-13630581D02*
X9893310Y-13611533D01*
X9893310Y-13611533D02*
X9883786Y-13573438D01*
X9883786Y-13573438D02*
X9883786Y-13525819D01*
X9883786Y-13525819D02*
X9893310Y-13487724D01*
X9893310Y-13487724D02*
X9902833Y-13468676D01*
X9902833Y-13468676D02*
X9912357Y-13459153D01*
X9912357Y-13459153D02*
X9931405Y-13449629D01*
X10083786Y-13630581D02*
X10093310Y-13640105D01*
X10093310Y-13640105D02*
X10083786Y-13649629D01*
X10083786Y-13649629D02*
X10074262Y-13640105D01*
X10074262Y-13640105D02*
X10083786Y-13630581D01*
X10083786Y-13630581D02*
X10083786Y-13649629D01*
X10217119Y-13449629D02*
X10236167Y-13449629D01*
X10236167Y-13449629D02*
X10255214Y-13459153D01*
X10255214Y-13459153D02*
X10264738Y-13468676D01*
X10264738Y-13468676D02*
X10274262Y-13487724D01*
X10274262Y-13487724D02*
X10283786Y-13525819D01*
X10283786Y-13525819D02*
X10283786Y-13573438D01*
X10283786Y-13573438D02*
X10274262Y-13611533D01*
X10274262Y-13611533D02*
X10264738Y-13630581D01*
X10264738Y-13630581D02*
X10255214Y-13640105D01*
X10255214Y-13640105D02*
X10236167Y-13649629D01*
X10236167Y-13649629D02*
X10217119Y-13649629D01*
X10217119Y-13649629D02*
X10198072Y-13640105D01*
X10198072Y-13640105D02*
X10188548Y-13630581D01*
X10188548Y-13630581D02*
X10179024Y-13611533D01*
X10179024Y-13611533D02*
X10169500Y-13573438D01*
X10169500Y-13573438D02*
X10169500Y-13525819D01*
X10169500Y-13525819D02*
X10179024Y-13487724D01*
X10179024Y-13487724D02*
X10188548Y-13468676D01*
X10188548Y-13468676D02*
X10198072Y-13459153D01*
X10198072Y-13459153D02*
X10217119Y-13449629D01*
X10359976Y-13468676D02*
X10369500Y-13459153D01*
X10369500Y-13459153D02*
X10388548Y-13449629D01*
X10388548Y-13449629D02*
X10436167Y-13449629D01*
X10436167Y-13449629D02*
X10455214Y-13459153D01*
X10455214Y-13459153D02*
X10464738Y-13468676D01*
X10464738Y-13468676D02*
X10474262Y-13487724D01*
X10474262Y-13487724D02*
X10474262Y-13506772D01*
X10474262Y-13506772D02*
X10464738Y-13535343D01*
X10464738Y-13535343D02*
X10350453Y-13649629D01*
X10350453Y-13649629D02*
X10474262Y-13649629D01*
X10569500Y-13649629D02*
X10607595Y-13649629D01*
X10607595Y-13649629D02*
X10626643Y-13640105D01*
X10626643Y-13640105D02*
X10636167Y-13630581D01*
X10636167Y-13630581D02*
X10655214Y-13602010D01*
X10655214Y-13602010D02*
X10664738Y-13563914D01*
X10664738Y-13563914D02*
X10664738Y-13487724D01*
X10664738Y-13487724D02*
X10655214Y-13468676D01*
X10655214Y-13468676D02*
X10645691Y-13459153D01*
X10645691Y-13459153D02*
X10626643Y-13449629D01*
X10626643Y-13449629D02*
X10588548Y-13449629D01*
X10588548Y-13449629D02*
X10569500Y-13459153D01*
X10569500Y-13459153D02*
X10559976Y-13468676D01*
X10559976Y-13468676D02*
X10550453Y-13487724D01*
X10550453Y-13487724D02*
X10550453Y-13535343D01*
X10550453Y-13535343D02*
X10559976Y-13554391D01*
X10559976Y-13554391D02*
X10569500Y-13563914D01*
X10569500Y-13563914D02*
X10588548Y-13573438D01*
X10588548Y-13573438D02*
X10626643Y-13573438D01*
X10626643Y-13573438D02*
X10645691Y-13563914D01*
X10645691Y-13563914D02*
X10655214Y-13554391D01*
X10655214Y-13554391D02*
X10664738Y-13535343D01*
X10845691Y-13449629D02*
X10750453Y-13449629D01*
X10750453Y-13449629D02*
X10740929Y-13544867D01*
X10740929Y-13544867D02*
X10750453Y-13535343D01*
X10750453Y-13535343D02*
X10769500Y-13525819D01*
X10769500Y-13525819D02*
X10817119Y-13525819D01*
X10817119Y-13525819D02*
X10836167Y-13535343D01*
X10836167Y-13535343D02*
X10845691Y-13544867D01*
X10845691Y-13544867D02*
X10855214Y-13563914D01*
X10855214Y-13563914D02*
X10855214Y-13611533D01*
X10855214Y-13611533D02*
X10845691Y-13630581D01*
X10845691Y-13630581D02*
X10836167Y-13640105D01*
X10836167Y-13640105D02*
X10817119Y-13649629D01*
X10817119Y-13649629D02*
X10769500Y-13649629D01*
X10769500Y-13649629D02*
X10750453Y-13640105D01*
X10750453Y-13640105D02*
X10740929Y-13630581D01*
X10931405Y-13449629D02*
X10931405Y-13487724D01*
X11007595Y-13449629D02*
X11007595Y-13487724D01*
X11302834Y-13725819D02*
X11293310Y-13716295D01*
X11293310Y-13716295D02*
X11274262Y-13687724D01*
X11274262Y-13687724D02*
X11264738Y-13668676D01*
X11264738Y-13668676D02*
X11255214Y-13640105D01*
X11255214Y-13640105D02*
X11245691Y-13592486D01*
X11245691Y-13592486D02*
X11245691Y-13554391D01*
X11245691Y-13554391D02*
X11255214Y-13506772D01*
X11255214Y-13506772D02*
X11264738Y-13478200D01*
X11264738Y-13478200D02*
X11274262Y-13459153D01*
X11274262Y-13459153D02*
X11293310Y-13430581D01*
X11293310Y-13430581D02*
X11302834Y-13421057D01*
X11369500Y-13468676D02*
X11379024Y-13459153D01*
X11379024Y-13459153D02*
X11398072Y-13449629D01*
X11398072Y-13449629D02*
X11445691Y-13449629D01*
X11445691Y-13449629D02*
X11464738Y-13459153D01*
X11464738Y-13459153D02*
X11474262Y-13468676D01*
X11474262Y-13468676D02*
X11483786Y-13487724D01*
X11483786Y-13487724D02*
X11483786Y-13506772D01*
X11483786Y-13506772D02*
X11474262Y-13535343D01*
X11474262Y-13535343D02*
X11359976Y-13649629D01*
X11359976Y-13649629D02*
X11483786Y-13649629D01*
X11721881Y-13649629D02*
X11721881Y-13449629D01*
X11807595Y-13649629D02*
X11807595Y-13544867D01*
X11807595Y-13544867D02*
X11798072Y-13525819D01*
X11798072Y-13525819D02*
X11779024Y-13516295D01*
X11779024Y-13516295D02*
X11750453Y-13516295D01*
X11750453Y-13516295D02*
X11731405Y-13525819D01*
X11731405Y-13525819D02*
X11721881Y-13535343D01*
X11931405Y-13649629D02*
X11912357Y-13640105D01*
X11912357Y-13640105D02*
X11902834Y-13630581D01*
X11902834Y-13630581D02*
X11893310Y-13611533D01*
X11893310Y-13611533D02*
X11893310Y-13554391D01*
X11893310Y-13554391D02*
X11902834Y-13535343D01*
X11902834Y-13535343D02*
X11912357Y-13525819D01*
X11912357Y-13525819D02*
X11931405Y-13516295D01*
X11931405Y-13516295D02*
X11959976Y-13516295D01*
X11959976Y-13516295D02*
X11979024Y-13525819D01*
X11979024Y-13525819D02*
X11988548Y-13535343D01*
X11988548Y-13535343D02*
X11998072Y-13554391D01*
X11998072Y-13554391D02*
X11998072Y-13611533D01*
X11998072Y-13611533D02*
X11988548Y-13630581D01*
X11988548Y-13630581D02*
X11979024Y-13640105D01*
X11979024Y-13640105D02*
X11959976Y-13649629D01*
X11959976Y-13649629D02*
X11931405Y-13649629D01*
X12112357Y-13649629D02*
X12093310Y-13640105D01*
X12093310Y-13640105D02*
X12083786Y-13621057D01*
X12083786Y-13621057D02*
X12083786Y-13449629D01*
X12264738Y-13640105D02*
X12245691Y-13649629D01*
X12245691Y-13649629D02*
X12207595Y-13649629D01*
X12207595Y-13649629D02*
X12188548Y-13640105D01*
X12188548Y-13640105D02*
X12179024Y-13621057D01*
X12179024Y-13621057D02*
X12179024Y-13544867D01*
X12179024Y-13544867D02*
X12188548Y-13525819D01*
X12188548Y-13525819D02*
X12207595Y-13516295D01*
X12207595Y-13516295D02*
X12245691Y-13516295D01*
X12245691Y-13516295D02*
X12264738Y-13525819D01*
X12264738Y-13525819D02*
X12274262Y-13544867D01*
X12274262Y-13544867D02*
X12274262Y-13563914D01*
X12274262Y-13563914D02*
X12179024Y-13582962D01*
X12350453Y-13640105D02*
X12369500Y-13649629D01*
X12369500Y-13649629D02*
X12407595Y-13649629D01*
X12407595Y-13649629D02*
X12426643Y-13640105D01*
X12426643Y-13640105D02*
X12436167Y-13621057D01*
X12436167Y-13621057D02*
X12436167Y-13611533D01*
X12436167Y-13611533D02*
X12426643Y-13592486D01*
X12426643Y-13592486D02*
X12407595Y-13582962D01*
X12407595Y-13582962D02*
X12379024Y-13582962D01*
X12379024Y-13582962D02*
X12359976Y-13573438D01*
X12359976Y-13573438D02*
X12350453Y-13554391D01*
X12350453Y-13554391D02*
X12350453Y-13544867D01*
X12350453Y-13544867D02*
X12359976Y-13525819D01*
X12359976Y-13525819D02*
X12379024Y-13516295D01*
X12379024Y-13516295D02*
X12407595Y-13516295D01*
X12407595Y-13516295D02*
X12426643Y-13525819D01*
X12502834Y-13725819D02*
X12512357Y-13716295D01*
X12512357Y-13716295D02*
X12531405Y-13687724D01*
X12531405Y-13687724D02*
X12540929Y-13668676D01*
X12540929Y-13668676D02*
X12550453Y-13640105D01*
X12550453Y-13640105D02*
X12559976Y-13592486D01*
X12559976Y-13592486D02*
X12559976Y-13554391D01*
X12559976Y-13554391D02*
X12550453Y-13506772D01*
X12550453Y-13506772D02*
X12540929Y-13478200D01*
X12540929Y-13478200D02*
X12531405Y-13459153D01*
X12531405Y-13459153D02*
X12512357Y-13430581D01*
X12512357Y-13430581D02*
X12502834Y-13421057D01*
M02*
